/* XPM */
static char *images__1_1678531421[] = {
/* columns rows colors chars-per-pixel */
"100 100 81 1 ",
"  c #81313E",
". c #843543",
"X c #883746",
"o c #863946",
"O c #883946",
"+ c #873B48",
"@ c #8B3D4A",
"# c #903F4E",
"$ c #8E414E",
"% c #91414E",
"& c #8E4451",
"* c #934553",
"= c #984756",
"- c #954956",
"; c #984855",
": c #974C59",
"> c #9B4D5B",
", c #9E515E",
"< c #A04F5E",
"1 c #A1515E",
"2 c #9E5461",
"3 c #A35563",
"4 c #A95767",
"5 c #A65966",
"6 c #A95966",
"7 c #A65C69",
"8 c #AB5C6A",
"9 c #B05F6E",
"0 c #AD616E",
"q c #B1616F",
"w c #AE6471",
"e c #B36573",
"r c #B86676",
"t c #B66976",
"y c #B96876",
"u c #B66D79",
"i c #BB6D7B",
"p c #B7717C",
"a c #BD717E",
"s c #C06F7E",
"d c #C1717F",
"f c #BE7481",
"g c #C37583",
"h c #C87786",
"j c #C67986",
"k c #C97987",
"l c #C67C89",
"z c #CB7D8B",
"x c #D07F8E",
"c c #CD818E",
"v c #D1818F",
"b c #CE8491",
"n c #D28593",
"m c #D88796",
"M c #D58996",
"N c #D98997",
"B c #D68C99",
"V c #DA8C9A",
"C c #D6909B",
"Z c #DD919E",
"A c #E08F9E",
"S c #E1919F",
"D c #DE94A1",
"F c #E294A2",
"G c #E897A6",
"H c #E699A6",
"J c #E998A7",
"K c #E69CA9",
"L c #EA9CAA",
"P c #F19FAE",
"I c #EDA1AE",
"U c #F1A0AF",
"Y c #EEA4B1",
"T c #F2A4B2",
"R c #F9A6B6",
"E c #F5A9B6",
"W c #F9A8B7",
"Q c #F6ABB8",
"! c #FAACBA",
"~ c #FEB0BE",
"^ c #FFB3C1",
/* pixels */
"VVSLLSZCnNZSFSFFFFZFHHFNVZHHJLLYKKDKYYKDIYQYDDDCjfnJLLYIILTTTLLYKKKKKKKY^YYYYKKKKKYKKKY^QQKDDDKYKDKD",
"FZSHHSNNnNSSZCVSNNVFHFNnnMVFGHJJDDDDCBCCDDDDDDCMfibJLGGFZDAHFZVFDDCDIKKKBCCDKKYYKYYKKKKYYKCBBDDDCDCC",
"SSVZZMvbvnNVNMvvcbnVVVNnzMVHGHHFBCDBbbMBBbcbDDMfiibJGDVMnxnMnnnNBxxCDDBxfflCCDDKCKKKDDKKKCllbCDBCCBl",
"SVMvvczczcnnnvzkjzznMmncNVFHFFZFVVBNbbbMbcccCCbfffnJGVMnzzznbxbnDCCBCxffffxBCxlfllxBxCDKKDblbCCDDCBl",
"HVvvckkzkzvvnvvzkkzzcnnnFVZNMnxnMnbnnbzjfjzcbnbgggnGFMMxzzzxxxbNCCCBBfffxBBbbllfffllllCDDDCbxBCDKCBl",
"SVvcckkzkkzvNNMnvzzzzvvMVNnkgffgcgagzbfttfzczczzggnFNnnbzkkhkkbnBBxBbbbBCbBbbCCClllllllxlBBbllBCDCbl",
"SMccdllckkkvbMMnnnnnvnnNMnbkggigzfuijlftujMMclzbgixFMzxxjjggggjbxlfBbbCBxbxlxCCKCCllblllflBlllBBCBll",
"ZvdddddcffdkkbbvnMMMMnnnNNMnzzzznlffzblgjMZVbllztuzZMkjjjgfgffjzbfffllbflllbbBxbCxllClffffllllllBbll",
"SnkvbvvvckkgdgkvnMnMMBnccnVMmnvxczczzzzxMNMnxbzkyfxNNbjjgjznxzxbMfflBCblfzbMBBbblllxllllfllxllBCxlff",
"FCCnMnMNvckvbvnMnNVNNnncnmMvvmNNcnMMxnMMMMMxxnxjifjnMxzzjznMMMMMBbBbCCBxfflbBZCbllllflffllxCxBBlllff",
"SCMvvvbCkcvvNCMnMMNBNnnnnMMvvMmNvMNVNMmNVVNMVVnkiijnnxxnxxbnMMnnlllxCCBxblxbCCBblxClllllClllCCClllff",
"NvkkkkkbbnCNNnnnnvvNVVVVVVVMNAAmnMVVVNNNFFVVAFNhrfzMVMnxMnnnNMnxbxbMBxxzMCCCMnMbCxCClllxCClllCllxllf",
"nkkkkdkzvNSCvvMCNcznZSVBSSVVAAGGNVNAAAAAAAANAmks9izZFnzjnnnVDFFZCCCBBCbbCCDCblzbCCCCxlxDCCCCxxlCBxlf",
"NvvvvzkcnNSCnvNSBzjvVBnvZMckxAAAmVAASFAAAAAAmxs98tzVVnjgjlxnVFHHDDVMflffxBCMllbBCKKDCCxCDKKKCxCCBxff",
"CbvnbvckvnvvvkvvvzjcvzcvckiysdddgxNAAmxxnNVNxxs99yjMVnzzzzxxxzzblxBllffflbxxzbBZxxClllllCDKCxlClxzhg",
"MvkvbvkkkkkkkkpygdgccdzMdjdddds44snmkssgghxxxki9tijnMMMVVVNzgueefffblbxlBbblMCADlllllllllxxCxllxxzxz",
"vkudndqwpdywq607upppuyddqqdsdNrrrxxgsr349ersssssghxxxxxnVmxxhhhggjjzxnnNzlzhzMBBxxxbnMxxbbnbljffllfl",
"qq11q6;12611;;;;21;1666616s6sd9r4s9<<<=3441<=<49ighgi9984444489990877eeffff99rrw08777070444488723f2f",
"11;;;;%%111;;;;11;%;111%;16;441q993####<<<=#XX#<9rre3=##XX###><<3>:-:,3487<<>>:*-*#@@####@+@###+$&&:",
"kppppuwpffkkfffdfpwupdq66qssssqsrr9443<1114<==<<8er9<=##<>>=<<<<33,>,3783,,>33,>>:*&&*-*--*&&###$&&:",
"IKIILKKHYIYYIIKDFFFLLFvdmSSSGGSSPJLPJJGSGGJPJGSSGPTPFZZFIPLLJGGHFHHLJLJKABNZJIILJHDFDFAZCADAVNVVBBCD",
"QIQQTTQITTTTIKDCCSHLLDcfGRGGUPRTJAAGGJPJPJLJPUUPGJILLLIITEETRRTYIIUTTLJFZmnAUETIUIUYEYULFJLILUYEYYYK",
"HCSHCDKCCSHCbcbbccbCCvpqNPSSGAJJAxxAAAGASAAAJPJSmVZFJLLLIIPLILLGJLLULHZBxlzZLUHFFDFJLJJFSCCGLYIIDDKD",
"CcbMkMSvvCSbfpfbCMNCCbpqkJGPJvNmxgxANANxxxxxSSNxlxmZGLHDGGGFCNMMVAFFFCNMzgjAIIFMxzxbMNMnAnxmDFBllllx",
"MbvllbbbbCbbllbbDFDCClpwNHFMMnvvhhghxxxhhhhxxANmzMDKJKKIHKKVnMMMNmxnNVMxkfgNLJBbxxlxlxMBDHFABNMxxxbb",
"bMCbllbCCbbbbCCCCCHFClpqcZZMnvkkhgshxxxxxkgghxmxvBZFDBBBVDVbbnMbzkzxnnMNzgfMHFMxxxxzxlxnZFHVMNnnxbxB",
"CCCCbbbCCbfpllbblCDDCjw7kZSNnvgghssgxxxxmxhghxxxnBVBblffxzljlcclffjnnzxMxgfxAVxjlxxxjjlxxBBnzzzxCCCB",
"CCCCCbbbblppfllflCCCcju7kZFNNbkkgsrrgxxxxxxmAxAxMVBMcgfffjgffggfrfbANjjnxgfxVBxllxllkjlljxxjgjzzBbll",
"MbbMbbllppppbCCCCCCblfp7lCDMbvlzhhsssgggkxxAVAmMVCCBbbcfflclfafjjxBFBzjxnggzVVbxjjzzzzzxzzzjxMNnxlll",
"CCbCCCblpppfbCCCCCbfppu7zCZvvcklxxxxxxxhmxxxxnnMMMMMbbbbMMBBbljcADDVnxxnzfgxVVnxjlxxxbxnbxlznZABbbll",
"CCMCCCblllbbbbllCClpppu2lCZbbclkxxAAAxxxNmxxxxMNMbbbbMbbBBBDCMMBHJFNnBNxhffxANnbkxnnMnMnxxzjzNVNllll",
"vvbbblllllCCCbbCCCbfjlp7zDZMMvzcxxxxAAAxANAmmmVVCBMBBBDBMbMDDCBCZHHVAFVhgffxCBxxxxMNNMMMnMxzznVBxBBB",
"flMMMMxfflMCBbMDFxhxxhf8fZHxxhfhsxxnmxznNCSAVBVDVBDDBDKDCbbCDZCDDCBZHDBxfrrxANxzmmNVACAZZNnxMnMnnBSH",
"flBCBCBfxlMDDDZBxhffhf83zVVxjfffsxnmMnzxNnxnVVVBHDDCMDKDKCCDKDZBBBBCAVzfitfbAmxxxxBAGLJGAVVBNnzjkcnn",
"fbMlllffffffMDMlffffgjf3xDFxxxxxxSGSGZnMnzgjMCAMCBMxfbCCblxDKKDZDKKDDMjfrtfxNmxxjzbBCVBNMMNVNxjfnMBC",
"fBBffff0fffffBlf4fhffzf4zVDxxVxzxxxmBxggxkgjxnxxzllfffzlfffCDDBMMCCBbfueetgnNmmmMNNMmzjjlxxNBNnxBVBC",
"bxMffffffllffxlf9fhhjxf9xZVxxxzfgjjgjfe9ggzzgfgjffzbllbffffxlfffffffgffjffjmAANmHHANxzkjjzxnNNVVMMnn",
"fff7,5277ff07wf78fhffffffxzfjjffrfitie58efggt9tfuflxbbbfffbff0wwuuwwtifjffzxmmxkxzjgfgggggffffgjvvzz",
"&:#@@&::++o+#&::*:==-=,4794>383<>33>>-#-5885350e80ufuffwfff77777222-=:>29tffir94,,,>23488873,<580061",
":::#-2:#@oo+#++@###@X@:0093&=:*#:,>**@+*,>#&=378,27727w7727:::::2:$$#&#&=499<##Xoo+###*-*=:*#*>33,;;",
"MDLHxxxDFVxNNxzzxxxzzxVKVxjfffffkzxjgfgzjgfglxbbffflllxBbbxbbflfflffffffjxxzgrrffgjgfffkzznmnzzxvckj",
"KKTUYLLILJLPYLFGKKFKLYPLPLFVxxZxFGLLFDGJGJLLGGGHxllDKKKKKKKK^KKKIKIIKDFDFJLLFGJJFLIUJJJU^UTTULLILHFS",
"DZZFLLLFxAGULLGKLKFPR^LVxAZDFFFFGLIYUIIUIE!QIFDDllCKYYYKDKY^^KKDKITQ^QQELLPUR^^^TQ^^^^^^^QILILLLLGZV",
"LZxZFLHZhxxxZxxVVxxHIYVlffzxxZZHCAFFFFFFAGIJZMbxfffKYKDCBBCCbBbBMBZDDDDCNBASGJPPGLLLILLUJNzzbMNNBnzz",
"JFxxNAAVhxxGFxxVBBxZGKVxxxxZFFLRJFFSFFFFBVACNnxlfffDKDblbBBxflCCBBCBMxjfjznNmxmANNNBVAFFAbjjxMBVVnzg",
"GAxxzxxzxxxAAVAAxxMBVVVxFDFKHDFLLGZZASZAnnnMnxxxffxKKCxfbxfffBCKDDCVMbllzxMnzxxxzjjhzxBADVMNVVAFGVzg",
"GGxAxxxhgghxxxNVBxxxxMxMFxxZVxhhVMxbMMbzjzxxzgjlffbKCbllflfffxxCBMMblbnnxxzxxxxxzjffglxxxxNBnxMZZnjp",
"GAAAAxzggffzxxxZDVMxMxBxFxBVVzffxljzxxjfgxBMzggzffxCCxlfbfffflffbllfjlzlMzgjznmmNnlhjjzzfgxbzjzNVnji",
"AANmVxxllfffzxzxxxxxMMBBxxMCBffxBzffllfxxxDxzhxhfffxDxffxxflxlxlzjjjxnxxxMBnzgxBMnkjzxzgtgzzjgjbvlgp",
"AxxxxxllxgglzzllzxzxxfzzxxxCxzxVZxzxxBxxBVZxzzxhfflCDBxxxxxxxxbxxzxbBVBMnMMnnxnMzxnzzzzjgjzxzkbMclai",
"GVBMMxxxxMMNNMxxxxxxxzffffxxxzxVZxBBBxxxVZVxxxxxfffxCxxBlxBBBxCBBmnnNBmxjjjzxNxlfxVnjgjzzzzznnnncjap",
"LFVxxzlhxVZAZAAFZxBxxlxzlzxxzlxVZxxxZxxxVVVZZxxhfffZCxxxxxBxBBBxNnnnnnxxxxxNDFVngnVMjgzxNnzznnMnclfp",
"FVxlfffrfzxMMMMVxxxzzhhxxBxxxxBVxxxxxBxVZAVZxxxgffxJGxxxBZZZBxxZmnnMBNNnbnNVVVMnnVZmxxMVCNnxnVMbbllp",
"DMxlffr9flxzxxzxzzzjjhzxzxxhxVZxzxxZBBZFZVZZxfffffxxPxxxxxxZZZFLACVNnxzzznNnzjjzZFZMnNDDFZZVVVNNMcff",
"GVxxzzfflxxxhzlfhjzhzzhxfjffjxxjffxDBxxxZxxxgf4ffffxFxxxfxxZxZFKDAVMxjgfMCFZnxMAFFVnnVZFVFGGZNNNMclf",
"DVMMxxzzlxxzhlgfffjzzhhgfffffxzfffzZBxlzxzxxff49f4gxAxxxxVDxxzxxNBNMnxzzxBAVMnZLVVMxxMVVMDKJDnbnbcff",
"DMxxmxzlfgfgzfr9ffffffhhhgffghff<fxxzfffffff9ffffhxxDVxxLDxxzfffjjzbMmnxMbxxnVDAxnmnxjjxMMNMxhjjBblf",
"Mxflxzlffhfffr8effffffggfghhxhfffjxhff9<ffff4ffhlxxxZZxfxxzlzzzfjjjxxxnnnbbxnBVVVMnMMMMMMnnnbzzjccff",
"f4340043rf443:=3fff44f9f<ffgfff4ff983<<<84<<=<fffffffff-f533349f455780weeeeeeeeee5,58733553745552270",
"4>>>>>==995>>-=594=<<994<49f844fff43>><<3>*##*=34ff8<<-oooooXXX ***&*:,33,>>:=-=>#+@#@o ++@+@+@@+$&:",
"fffff9ffzlffgggxjfffhxjffhzhfzzzxxzffffffffffffffxhff3334758ff47rrreeeifft9ttettitwee9750eee77777770",
"DFFAAxxZAAxNLJKTHGAFLLVxxFGGKLHFLFFHKGAxFGxGxLJFAJLxxxxBxxVFDJGFDFLHDAADNxjMDGGLFFGJJDAADHJFVNnMDDDC",
"LJJPILHLFGDDLGFHLLKLPKxjxHLPPPLHDVZHPTPPLTYPU^!PFFGFKZFPTYIPRRIJJUEEIGDAxjjATETEEEQ^^QTTJJJLTLKDIIKI",
"IGFIT^ILLULLFMxMZZxVDxffxxFZZZFFZxxxZZVZVJKxFRYVhhfxxxxFKDDDFKKxCGUYJVMxftrnUELGZADLJAMnNMNFT!YDbbMB",
"ZAMMZGDZADLLAxllVABMnxf7zmBxVMxBxxxmVmxjzzxMZHFMzjgxVHLYFGFBmBVVFAFGFNzjf9fVLJZBmMMBZmMmBVmxMBMzpccb",
"MxMMmZZxVALLDMxmADFZmxf<xVBxMnzlhggzxxxxnxzznBnxzzzBHLPTFFAMnmmBAVBBNxxxg9fxJFMzxzzxxxMBFGFBxxxzBbcl",
"xVZZMVAMVZSFABBDZHGFAlf3xMxzxhffgrfgzzzxnnljzxzjzzxBAZNMMMMxzxMMzzhzzhjlhffxFAzhzhhghhxxFHFMzjljBbcl",
"MVAVMMmAAxxhxxxmxVAAVl93xBnxxhfffirfffjxnnzjzxxjnzxMxffrgjhgglzzffhxzfffgrfxVxzzxlggffghxxzgffjjlfcb",
"xMMxxxBVmlfflfzxxMAMxle3xVBnmxlggffiiffjjzzzznnxMbnnxff9fggffghgfgxBMzfffwfxMxzmlhggffffgfffgxzzpabb",
"bxxllxMxzfrflxxxxMVxlfw3lnnxMxllzgfffffjfjjzxxnzxxzbxzgjzxxlgggfzxnxxghzfrfhMxxBgfghhggggfffzxnxcaac",
"DMxzxBMzfeffxxxbMBxlff44fxnxxzlxnzkxxxxxzxzjlzxzjjlxbxznxMMzlzzlMxzzjghxfrfznxxxgfgzzlhzhhfgzMnzcppp",
"DVxxMZxg0fflMxxxMnxfr984gBVMxxxxVnnVSAVBVBxlhjzjzzxnnxzxxMMxxxxzMnMnzzxVhfwfnxhllhhzzzzxghjjlzxzapcl",
"xzxMAAxfflxMxxxxBxhf9f93gVZMMxzzzxnVAVVACMnxxzzhjxMBVMxxxxxbxxnBVVVBMxxxgfrlMxggMnzjjjzxhxxxzjffccbC",
"ffxxmxxlgxMAAZBxxmxgffr4gMxllhffrrfgzljzMbxzzxzzzxnnxxmBZxznNmMMnnmVBMlffrgxVMzlzzzzlzzzmmmMxljglcbb",
"flVVxxxxlhxxVDZxlzhgffe8lmMlhgffggjnBNnnxzhzbnbzzzjjghxxBxznVABMxxxVAxf9rrfxAxzzflxBFHJJMmnxgfffaclc",
"9lxlffffffffxxxh9freeff9zAmxxxhgzjzNVNnzzggjzbxhhgfffghhlfjxBZNxMMMNxh94w9fxBxzzrfgxxnMxlzzjgffrllcc",
"fhlffeeerf9fffff9wrfglf7lBxxxmxxzggzxhfffiiiggfigghghgffffhzxxlgllzlgffffffzmMzzzzzgfr94hjzzhjjjbbbb",
"zxxgffffrffferff9rflxle4gxxlxMxxjffggfreyttytiitggkzxzgfrfzgfftrertrwrfzhfhxMxlgxxxlffrfffghghkzcjdj",
"8082=<343443343><34er084fhferfff998083,2999989eerrffjgffefgf4453474334efrfflfr0w333479ee447770erw001",
"X###..@@XXX.X#+.+@#@+#<4ff8:>>::3323>==:,332,,383537etfe9re4>>,,73,>>:>,<8rr8#@=#@@@+@@@:*##@#:,1,>;",
"rsggr9efr99rrr9errrewrffgffe977438e85,238747eifgsqsssdsddyyqqqqq4773,,330erffr99ew09efrrw999wwrfssqq",
"PGGJGAAFGFFGGSASDHHDHJJLGFZBxxnxNVVZVVNNVDDAZVVZvdvAAJSJAASNmmmNNMMxxxzlzxNVNVVBZBBVAAZZFFGKJDFFASmd",
"RUUUPJJLLJPPPLJLUPLYEEERJHAAAFKJLLLT!!TJTQ!!YJHGmkAJJRPUPPPUPPJJYLLPEELHGLLYUT^QT^ETYYYT^TUYYLLTGJAd",
"GAmNAAmVxxxmmmmBABxBAFZBxzlxBFHFHFVFHHFNFJJJFVMndsmSSPGSNASGSSANVVVHPYJFBZFFHKLPLLPLJGJKHmzjxxmVmAds",
"GAxVVVMxggkxxxxMxxzxmAmxhglMAKGHHSVNMMMMVVMNNMxjsqvASGmmvvvNmvvvzxxMmnxzhzxxxxnMnBNAVAFHFzfflxnnvvdq",
"LAmmxxzzggzxxkznxzllxxxlllxZFHFFVANMzzcnMbkzxnkgqsNSAmdddkkkkxvvxBBNzhfggjlzhgggfgghzxmmVxgnVAVBvvds",
"JVzzggggffhjgfglzfffgggfhlzxMnxxzzzzkjjkggggkzjfssNSvkddddkdkkvvMNBxlgglzzljggggffffgghhzlzxmxnBvmdq",
"FVzjggggrfgjjggxxzlglllhlhzlgjgguiggjggguiggzzzksdASxddkxkkddkkkhhzlghjzxzzgffghxxgghgfffghhffzNmNdq",
"ZnxbbxlxfeefnljnxzghgglzxxzlgfrfaiiigdiypdbnvdccssdNxdddkkkkkkkkfgffgxxzzzlhghhzjhhzhgffrfffggxxmxdq",
"FBnbxlbbffffjfffzzlzzhzzxlhgggffzkjggdaiccvvccddsqdmxdvdkkkkkkkkhhgggxzghlzzljlzfghhgfrfffggggxxmks6",
"ZMxlggfbxbnbzzjzzlzzzlhllzlhzzhhnMnvzjzcnnnvvcdcqqdmmdxdddkvvvvxglhjzxzgflzxxzzlgjzhffffhkzlzxnxxdy6",
"DDBMxlzbzBDCMBBBxzhzlhhlhzxzzxxmnBnczznMMnvnMvvdqsdNvvdxdkvvmvvkgjlzxxzhflzbxzzzzxxhggjzxhhjxxxxddq1",
"BCCbljflffBblBDCmxzzzjlzgzxzhzxBnvczccvvMnvMAmdd9rdmvvmxvvvvvkkkghlxnxljlzzxzxxnMxzzlzzzzlhzzzzzkdy6",
"fccffuuufflllbMbBMxxzzzMlMBxlzmVnvvvcvcvMnmMANde9sxNvdmdvkkvvvkvxzzxzjgfzzzzzznMBxxxxxnnxnxxMMbxzgy6",
"BBbccfffflllbzbbnxxxxxxBxMxzlnMxzvBMvvnnMnnMmds64rxNmdxddkkkvvNNnzzzlgfhzxbzzxnNBBMnxnMNMMBBBnnxvge6",
"CCBffccfffbbbbzzljlxMxxxhlffgnxgpknMvcvnMnvnmds449dmxdxxkkvvvvkkxlhzlggzbzxxzxxMxnMxzzzNzxMMzzfjkde6",
"blfcblpppppfffpuwppppfkfuqy6qdtq1dkkvkdkkkkkkdyqqykvvvvNvvvkyyyygghhkkdkvxmdvxvvdkkfdgjjfklkddddddwq",
"Blffllppppppuwwwpppwypdppypqykpy6dddyqqqyqqqqqq6qdkvkddkkddddddyfgggddkzvddddxdxdkkdddjgdgkgdppddteq",
"lpwwww70ww022:22ww7767w8q6y6tkywqdq61;;11;;;;;116qddq611111111163444489qqq6666qq66612366276662262526",
"u722,::&,2,-+++&222:;;22;1616yq66q6;%OO%;;%%OOO%16qq1%%% OO     @###%*;>;;%%%%%% @O .OOO.O+O..OO%%%%"
};
