/* XPM */
static char *result[] = {
/* columns rows colors chars-per-pixel */
"82 100 189 2 ",
"   c #060606",
".  c #0D0D0D",
"X  c #121212",
"o  c #1C1C1C",
"O  c #222222",
"+  c #2C2C2C",
"@  c #353535",
"#  c gray23",
"$  c #434343",
"%  c #4D4343",
"&  c #4C4C4C",
"*  c #534D4C",
"=  c #594C49",
"-  c #545454",
";  c #5B5857",
":  c #5D5C5C",
">  c #5C5451",
",  c #62524D",
"<  c #645652",
"1  c #635C5B",
"2  c #6A5D5C",
"3  c #6E5B55",
"4  c #705F5E",
"5  c #65605F",
"6  c #6E615C",
"7  c #72635D",
"8  c #5F6060",
"9  c #656564",
"0  c #6A6564",
"q  c #6C6C6C",
"w  c #736261",
"e  c #7B6462",
"r  c #766863",
"t  c #746D6C",
"y  c #7D6C66",
"u  c #7E736F",
"i  c #737373",
"p  c #7C7574",
"a  c #7B7B7B",
"s  c #83675D",
"d  c #916C5F",
"f  c #826A62",
"g  c #816F69",
"h  c #8A6E6D",
"j  c #8A746D",
"k  c #86726B",
"l  c #90766E",
"z  c #9C7668",
"x  c #94786F",
"c  c #98786D",
"v  c #927165",
"b  c #837673",
"n  c #8C7772",
"m  c #837876",
"M  c #8B7975",
"N  c #847D7B",
"B  c #8B7C7A",
"V  c #997575",
"C  c #947E7A",
"Z  c #9E7A79",
"A  c #977D75",
"S  c #A87F72",
"D  c #A07D72",
"F  c #88807E",
"G  c #96827E",
"H  c #AE8070",
"J  c #A5837D",
"K  c #AA8377",
"L  c #B38677",
"P  c #B38B7F",
"I  c #C18F7E",
"U  c #838383",
"Y  c #8C8483",
"T  c #898887",
"R  c #8B8B8B",
"E  c #948483",
"W  c #9B8986",
"Q  c #928E8D",
"!  c #9A8A89",
"~  c #939393",
"^  c #9A9897",
"/  c #9C9C9C",
"(  c #A48481",
")  c #A18A86",
"_  c #A68E8B",
"`  c #AA8F89",
"'  c #AB8885",
"]  c #B88E82",
"[  c #B48B8A",
"{  c #B98E8D",
"}  c #B38F86",
"|  c #AD908A",
" . c #BE9284",
".. c #AA9491",
"X. c #AF9996",
"o. c #A09E9E",
"O. c #BF9392",
"+. c #BC9B94",
"@. c #B69B97",
"#. c #A0A09F",
"$. c #B7A09E",
"%. c #BEA09C",
"&. c #A3A3A3",
"*. c #A9A8A7",
"=. c #ABABAB",
"-. c #AFB0B0",
";. c #B3B4B4",
":. c #B7B8B8",
">. c #BCBCBC",
",. c #C49485",
"<. c #D59F8F",
"1. c #C29594",
"2. c #C79E93",
"3. c #D19F90",
"4. c #D9A08E",
"5. c #C3A39D",
"6. c #CFA19F",
"7. c #DEA796",
"8. c #D7A99E",
"9. c #DEAA9A",
"0. c #E6A690",
"q. c #E4A996",
"w. c #E3AC9C",
"e. c #E9A993",
"r. c #F1AD96",
"t. c #ECB19F",
"y. c #C2A9A6",
"u. c #D3A1A1",
"i. c #D8A6A5",
"p. c #D4AEA7",
"a. c #DDADAC",
"s. c #C9B1AF",
"d. c #DFB0A5",
"f. c #D4B3AE",
"g. c #DFB4AE",
"h. c #CAB2B1",
"j. c #D7B9B6",
"k. c #DEBFBB",
"l. c #DBB8B2",
"z. c #E3ADAC",
"x. c #E6B1A3",
"c. c #E2B3AE",
"v. c #ECB7A8",
"b. c #EBB9AC",
"n. c #F3B9A9",
"m. c #FBB8A2",
"M. c #E5B4B3",
"N. c #E9B5B4",
"B. c #E6B9B7",
"V. c #E9B8B7",
"C. c #E7BAB9",
"Z. c #E8B8B8",
"A. c #E6C0BA",
"S. c #ECC2BA",
"D. c #FBC3B3",
"F. c #FEC7B9",
"G. c #FDCABD",
"H. c #F4C3BA",
"J. c #BFC0C0",
"K. c #C3C4C4",
"L. c #CBCBCB",
"P. c #CFD0D0",
"I. c #D3D3D3",
"U. c #D9D7D7",
"Y. c #D7D8D8",
"T. c #DDDDDD",
"R. c #EBCAC7",
"E. c #F2C9C3",
"W. c #FFCEC3",
"Q. c #F8CFC8",
"!. c #FFD1C5",
"~. c #F5D2CF",
"^. c #FDD3CB",
"/. c #E1DFDF",
"(. c #FED7D2",
"). c #FFDAD4",
"_. c #FDDDDD",
"`. c #E3E3E3",
"'. c #EDE5E4",
"]. c #ECECEC",
"[. c #F6E4E4",
"{. c #FCE5E5",
"}. c #F0EFEF",
"|. c #FBEDED",
" X c #F4F4F4",
".X c #FBF4F4",
"XX c #F7F8F8",
"oX c #FAFAFA",
"OX c None",
/* pixels */
"OXOXOXOXOXOXOXOXOXOXOXOXOXOXOXOXOXOXOXOXOXOXOXOXOXOXOXOXOXOXOXOXOXOXOXOXOXOXOXOXOXOXOXOXOXOXOXOXOXOXOXOXOXOXOXOXOXOXOXOXOXOXOXOXOXOXOXOXOXOXOXOXOXOXOXOXOXOXOXOXOXOX",
"OXOXOXOXOXOXOXOXOXOXOXOXOXOXOXOXOXOXOXOXOXOXOXOXOXOXOXOXOXOXOXOXOXOXOXOXOXOXOXOXOXOXOXOXOXOXOXOXOXOXOXOXOXOXOXOXOXOXOXOXOXOXOXOXOXOXOXOXOXOXOXOXOXOXOXOXOXOXOXOXOXOX",
"OXOXOXOXOXOXOXOXOXOXOXOXOXOXOXOXOXOXOXOXOXOXOXOXOXOXOXOXOXOXOXOXOXOXOXOXOXOXOXOXOXOXOXOXOXOXOXOXOXOXOXOXOXOXOXOXOXOXOXOXOXOXOXOXOXOXOXOXOXOXOXOXOXOXOXOXOXOXOXOXOXOX",
"OXOXOXOXOXOXOXOXOXOXOXOXOXOXOXOXOXOXOXOXOXOXOXOXOXOXOXOXOXOXOXOXOXOXOXOXOXOXOXOXOXOXOXOXOXOXOXOXOXOXOXOXOXOXOXOXOXOXOXOXOXOXOXOXOXOXOXOXOXOXOXOXOXOXOXOXOXOXOXOXOXOX",
"OXOXOXOXOXOXOXOXOXOXOXOXOXOXOXOXOXOXOXOXOXOXOXOXOXOXOXOXOXOXOXOXOXOXOXOXOXOXOXOXOXOXOXOXOXOXOXOXOXOXOXOXOXOXOXOXOXOXOXT i i i OXOXOXOXOXOXOXOXOXOXOXOXOXOXOXOXOXOXOX",
"OXOXOXOXOXOXOXOXOXOXOX]. XT.OXOXOXOXOXOXOXOXOXOXOXOXOXOXOXOXOXOXOXOXOXOXOXOXOXOXOXOXOXOXOXOXOXOXOXOXOXOXOXOXOXOXOXa a :.`. X`.OXOXOXOXOXOXOXOXOXOXOXOXOXOXOXOXOXOXOX",
"OXOXOXOXOXOXOXOXOXOXoX X X X X].OXOXOXOXOXOXOXOXOXOXOXOXOXOXOXOXOXOXOXOXOXOXOXOXOXOXOXOXOXOXOXOXOXOXOXOXOXOXOXR i >. XoXoX X X].OXOXOXOXOXOXOXOXOXOXOXOXOXOXOXOXOXOX",
"OXOXOXOXOXOXOXOXOXOXoX X X].].]. XOXOXOXOXOXOXOXOXOXOXOXOXOXOXOXOXOXOXOXOXOXOXOXOXOXOXOXOXOXOXOXOXOXOXOXOXOXi ^ ]. X X].].]. X].OXOXOXOXOXOXOXOXOXOXOXOXOXOXOXOXOXOX",
"OXOXOXOXOXOXOXOXOX].oX].`.L.L./.].].].OXOXOXOXOXOXOXOXOXOXOXOXOXOXOXOXOXOXOXOXOXOXOXOXOXOXOXOXOXOXOXOXOXOXq K.XX].].T.L.P.`.].}.T.OXOXOXOXOXOXOXOXOXOXOXOXOXOXOXOXOX",
"OXOXOXOXOXOXOXOXOXoX X`.^ 1 2 q / I.].}.OXOXOXOXOXOXOXOXOXOXOXOXOXOXOXK.>.>.K.I.OXOXOXOXOXOXOXOXOXOXOXOXq Y.XX].I.^ q 2 1 ^ `.}.].OXOXOXOXOXOXOXOXOXOXOXOXOXOXOXOXOX",
"OXOXOXOXOXOXOXOXOXoX XL.1 1.u.{ e 0 >.]. XOXOXOXOXOXOXOXOXOXa 9 q 9 - b M j y * 9 q 9 N ~ OXOXOXOXOXOXOXY.XX].>.0 e { u.1.1 P.].}.OXOXOXOXOXOXOXOXOXOXOXOXOXOXOXOXOX",
"OXOXOXOXOXOXOXOXOXoX].>.2 M.N.M.z.( 1 :.].OXOXOXOXOXOX5 n | ,.w K.U.U s.).F.,.N P.L.a %.| j 1 i OXOXq K.].].;.1 ( z.M.Z.c.4 >.]. XOXOXOXOXOXOXOXOXOXOXOXOXOXOXOXOXOX",
"OXOXOXOXOXOXOXOXOXoX}.;.w M.C.C.C.M.[ ; :.`.OXi & a ^ m E.W.q.N `.].L.N R.v.g L.].`.T R.^.v.y ~ a & a I.`.;.1 [ M.C.C.C.M.4 :.].}.OXOXOXOXOXOXOXOXOXOXOXOXOXOXOXOXOX",
"OXOXOXOXOXOXOXOX/ oX}.;.w z.C.C.C.C.M.[ 1 R q a >.`.].=.! G.I ^  X X X;.W G =. X}. X#.y.F.c #.`./.:.a q R 1 [ M.C.C.C.C.c.4 ;.]. XOXOXOXOXOXOXOXOXOXOXOXOXOXOXOXOXOX",
"OXOXOXOXOXOXOXOX#.oX}.>.4 a.C.C.N.N.z.{ * q ;.`.].].}.].^ ( h K. X X X XQ R }. X X XL.B Z Q `.].`.`.T.;.q = { M.C.C.C.C.a.4 >.].}.OXOXOXOXOXOXOXOXOXOXOXOXOXOXOXOXOX",
"OXOXOXOXOXOXOXOX#.oX}.K.2 a.C.N.N.i.h 9 =.T.].`.].}.}. X].&.o.]. XXXXXXX}.}.XX XXX X}./ #.]. X}.].].].`.T.*.9 h i.Z.C.C.i.2 K.]. XOXOXOXOXOXOXOXOXOXOXOXOXOXOXOXOXOX",
"OXOXOXOXOXOXOX&./ oX XP.9 6.N.N.O.2 U P.`.`.].].}. X}. X X XXX X XoXoX XoXoXoXoX X X X X X X X X}.}.].`.`.`.P.U 5 +.Z.Z.u.5 P.].}.OXOXOXOXOXOXOXOXOXOXOXOXOXOXOXOXOX",
"OXOXOXOXOXOXOX*.^ oX XT.q { z.S 1 *./.`.].].}.}.}. X X X XXX XXXoXoX XoXoX XoXoXoXoX X X X}. X].}. X}.].`./.`.T.*.1 ( N.{ q `.}.].T OXOXOXOXOXOXOXOXOXOXOXOXOXOXOXOX",
"OXOXOXOXOXOXOXOX~ XX}.].U V Z 0 J.`.`.].].}. X}.}. X X X X XXXXX XoXoXoXoXoXoXoXoX X X X X X X X}. X X}.].].`./.`.J.9 Z V T `.}.].U OXOXOXOXOXOXOXOXOXOXOXOXOXOXOXOX",
"OXOXOXOXOXOXOXOXU XX X`.*.% 0 L.`.`.].].}. X}. X X X X XXXXXXXXXoXoXoXoXoXoXoXoXoXoX X X X X}. X X X}. X}.].].`././.K.0 % *.].].].a OXOXOXOXOXOXOXOXOXOXOXOXOXOXOXOX",
"OXOXOXOXOXOXOXOXa }.}.`.=.- K.`.`.].].}. X X}. X X X X X.XXXoXoXoXoXoXoXoXoXoXoXoXoXoX X X X X X X}. X}. X}.].`.`.T.`.J.- =.`.].`.q OXOXOXOXOXOXOXOXOXOXOXOXOXOXOXOX",
"OXOXOXOXOXOXOXOXq ].].P.0 =.T.`.].}.}. X X}. X X}.}.}. XXXXXXXoXoXoXoXoXoXoXoXoXoXoXoXoX X X X X}. XXXXX}. X}.].`.`.T.`.*.q P.`.I.q OXOXOXOXOXOXOXOXOXOXOXOXOXOXOXOX",
"OXOXOXOXOXOXOXOXi I.].^ a T.`.].]. X X}.}. X`.*.R T ~ '.XXXXoXoXoXoXoXoXoXoXoXoXoXoXoXoX XXX`.~ U R =.`. X X}.}.].`./.T.T.a ^ `.K.i OXOXOXOXOXOXOXOXOXOXOXOXOXOXOXOX",
"OXOXOXOXOXOXOXOXU >.Y.9 >.`.`.}.XXXXXXXXXXY.U / L.Y.T.}.XXXXoXoXoXoXoXoXoXoXoXoXoXoXoXoX X X].Y.P.L./ U Y. X X X}.].`.T./.>.9 P.=.U OXOXOXOXOXOXOXOXOXOXOXOXOXOXOXOX",
"OXOXOXOXOXOXOXOX#.Q =.a T.`.].XXXXXXXXXX XU.L. XXXXX XXXXXoXoXoXoXoXoXoXoXoXoXoXoXoXoXoXoX X X X XXX}.L.U..XXXXXXX}.]./.T.T.i &.T OXOXOXOXOXOXOXOXOXOXOXOXOXOXOXOXOX",
"OXOXOXOXOXOXOXOXOXq 8 =.`.]. XoXXXoXoXXXXX X}.}.}. X X XXXoXoXoXoXoXoXoXoXoXoXoXoXoXoXoXoX X X X}.}.}.XX XXXXXXXXXXX].`.T./.=.: 9 OXOXOXOXOXOXOXOXOXOXOXOXOXOXOXOXOX",
"OXOXOXOXOXOXOXOXOX#.- Y.'.].XXoXoXoXoXXX X X X}.}. X XXXXXoXoXoXoXoXoXoXoXoXoXoXoXoXoXoXoX X X X X}.}. X XXXXXoXXXoX X]./.T.I.- &.OXOXOXOXOXOXOXOXOXOXOXOXOXOXOXOXOX",
"OXOXOXOXOXOXOXOXOX=.U ].]. XXXXXoXoXoXXXXX X}.}. X X X XXXoXoXoXoXoXoXoXoXoXoXoXoXoXoXoX X X X X X X X}. XoXoXoXXXoXXX].`.T.T.U =.OXOXOXOXOXOXOXOXOXOXOXOXOXOXOXOXOX",
"OXOXOXOXOXOXOXOXOXU ;.}.}. XXXXXXXoXXX X X X X].`.`.}.oXXXoXoXoXoXoXoXoXoXoXoXoXoXoXoXoXXX X X}.`.`.]. XXXXXoXoXoXoXXX].`./.`.*.T OXOXOXOXOXOXOXOXOXOXOXOXOXOXOXOXOX",
"OXOXOXOXOXOXOXOXOX9 -.T.].XXXXXXXXXXXX X XL.U & # # : &.`.oXoXoXoXoXoXoXoXoXoXoXoXoXoXoXXX`.#.: # # & U L.XXoXoXXXXXXX].`.T.L.&.9 OXOXOXOXOXOXOXOXOXOXOXOXOXOXOXOXOX",
"OXOXOXOXOXOXOXOXOX5 ! B Y *.]. X XXX X}.o.+ X X .   . . - P.oXoXoXoXoXoXoXoXoXoXoXoXoXXXL.& . . . . . X + &..XXXXXXXXX`.&.F F A < OXOXOXOXOXOXOXOXOXOXOXOXOXOXOXOXOX",
"OXOXOXOXOXOXOXOX=.E ).H.] 2 I. X X}. X&.o X X X X : &.U O $ T.XXoXoXoXoXoXoXoXoXoXoXoXY.$ O U &.- X X X X o *. X X XXXL.5 +.E.F.v OXOXOXOXOXOXOXOXOXOXOXOXOXOXOXOXOX",
"OXOXOXOXOXOXOXOX~ ` 8.x U L.]. X X XI.@ X X X . &  XoXoX~ . a XXoXoXoXoXoXoXoX XXXXX Xa X ^ oXoX X& . X X X # Y. X X X].>.a C 8.K ~ OXOXOXOXOXOXOXOXOXOXOXOXOXOXOXOX",
"OXOXOXOXOXOXOXOXU 2 Y >.]. X X}.].].&.X . . X   a oXoXoXL.o # /.oXoX XoXoXoXoXoXXXXXT.@ o L.oXoXoXi   . . X X &. X}. X].].Y.=.m < a OXOXOXOXOXOXOXOXOXOXOXOXOXOXOXOX",
"OXOXOXOXOXOXOXOXi -.]. X X}. X X].].a . . X . . $ ].oXoXR . O P.oX XoXoXoXoX XoXXXXXL.O . R oXoX`.$ . X . . . U ].}. X].`./.`.Y.&.i OXOXOXOXOXOXOXOXOXOXOXOXOXOXOXOX",
"OXOXOXOXOXOXOXOXq Y. X}. X X}. X].].U . . . X . X & ~ i o . O P. XoX X`.L.I.`. XXXXXL.O . O i ~ & X . X . . . T ]. X].].`.`.T.T.K.i OXOXOXOXOXOXOXOXOXOXOXOXOXOXOXOX",
"OXOXOXOXOXOXOXOXi T.XX X X X X X].].&.X i - . . . . .   . . # /.XXXXT.& O o q  XXX XT.# . . . . . X . . : i X =.]. X].].`.`.`./.L.q OXOXOXOXOXOXOXOXOXOXOXOXOXOXOXOX",
"OXOXOXOXOXOXOXOX9 ^ =.J.Y.}. X}. X].I.$ a : . X . X X . . . R }.XXXX`.-   . U oXXX X XT .   . . . X X . : i & Y. X X].].`.L.-./ T 9 OXOXOXOXOXOXOXOXOXOXOXOXOXOXOXOX",
"OXOXOXOXOXOXOXOXq X.+.J y K. X X X].].=.+   . . . .       - Y.}. XXX Xh.@ & Y. XXX X XT.-     . . . . .   + ;.].}. X].].;.p _ +.P 0 OXOXOXOXOXOXOXOXOXOXOXOXOXOXOXOX",
"OXOXOXOXOXOXOXOXi j.!.t.g L. X X X X X].=.# X         o 9 P.].}. X X X XI.T. X X X X X}.P.8 o .       . $ ;.]. X X].].`.>.p S.W.4.i OXOXOXOXOXOXOXOXOXOXOXOXOXOXOXOX",
"OXOXOXOXOXOXOXOX~ X.x.k >. X X X X}. X X].U.^ 0 * - a -.`.].}. X}.T. X XXXXXXX}.Y.]. X}.].`.-.i - * q &./. XXX X X].].`.`.*.b x.L Q OXOXOXOXOXOXOXOXOXOXOXOXOXOXOXOX",
"OXOXOXOXOXOXOXOXOX< , i *.-.>.`. X X X.X|.{.[.[.'.].].}.}.}. X X`.T Y.`.&.&.].Y.U ]. X X}.].}.].].'.[.{.{.|.XXXX X].I.;.#.^ 9 , , ;.OXOXOXOXOXOXOXOXOXOXOXOXOXOXOXOX",
"OXOXOXOXOXOXOXOXU & T ;.=.&.&.L. X XoX.X{._._._.{. X X X}.}. X}. X-.a U / ~ U a -.}.}. X X X X X X{._._._.{.|.XX X].>.~ ^ / &.U - U ;.OXOXOXOXOXOXOXOXOXOXOXOXOXOXOX",
"OXOXOXOXOXOXOXOXOX=.U }. X X X]. X XoXXX{._._._.{. XXX X X X}. X}.}.T.T.}.}.Y.Y.}. X X}.}. X XXX.X{._._._.{..XXX X`.Y.`.`./.T.i =.OX/ ~ OXOXOXOXOXOXOXOXOXOXOXOXOXOX",
"OXOXOXOXOXOXOXOXOXOXa =. X`.&.=. X XoXoX.X.X.X|.XXoXoXXX X X}. X X X X X}. X X X X X X X}. X XXXoX.X|..X.XXXXX X].T./ ^ P.T.^ a OXOXOXOXOXOXOXOXOXOXOXOXOXOXOXOXOXOX",
"OXOXOXOXOXOXOXOXOXOXOXq ^ U &.`. X X XXXoXoXoXoXXXXXXX X}.}. X}. X}. X}. X}. X X X}.}. X}. X XXXoXoXoXoXoXXX X].`.`.L.~ a R q OXOXOXOXOXOXOXOXOXOXOXOXOXOXOXOXOXOXOX",
"OXOXOXOXOXOXOXOXOXOXOXU $ #.].].].].]. X XXXoXoXXXXX X X X}. X X}.}. X X}. X X}. X}. X X X X X XXXXXoXXX X}.].`.`.T.T.T.Q $ U OXOXOXOXOXOXOXOXOXOXOXOXOXOXOXOXOXOXOX",
"OXOXOXOXOXOXOXOXOXOX^ OXOXq =.`.].`.].'.].].]. X X}.}.}.}. X}.}. X X X}. X}.}. X}. X X}.}. X}.}. X}.}.].`.`.`.T.T.T.T.#.9 OX=./ OXOXOXOXOXOXOXOXOXOXOXOXOXOXOXOXOXOX",
"OXOXOXOXOXOXOXOXOXOXOXOXOXOXi T Y.`.`.`.`.`.`.`.].].`.].].}.].}.}.}.}. X}.}.}. X}.}.}.}.}.}.}.].].].'.`.`./.T.T./.P.U i OXOXOX#.OXOXOXOXOXOXOXOXOXOXOXOXOXOXOXOXOXOX",
"OXOXOXOXOXOXOXOXOXOXOXOXOXOXOXT q ;.`.`.T.`.`.`.`.`.`.`.`.`.`.].].`.].].].].].}.].].].}.].`.].`.`.`.`././.T.T.T.;.q Q OXOXOXOXOXOXOXOXOXOXOXOXOXOXOXOXOXOXOXOXOXOXOX",
"OXOXOXOXOXOXOXOXOXOXOXOXOXOXOXOXOXq U K.T././.`.T.T.`.`.`.`.`.`.`.`.`.`.`.`.`.`.`.`.`.`.`.`./.`./.T./././.T.J.U q OXOXOXOXOXOXOXOXOXOXOXOXOXOXOXOXOXOXOXOXOXOXOXOXOX",
"OXOXOXOXOXOXOXOXOXOXOXOXOXOXOXOXOXOX#.q a &.K.Y.`.`./.T.T.T.T.T.T.T.T.T.`.`.T.`./.`./.`.T.T././.`./.Y.K.#.a q OXOXOXOXOXOXOXOXOXOXOXOXOXOXOXOXOXOXOXOXOXOXOXOXOXOXOX",
"OXOXOXOXOXOXOXOXOXOXOXOXOXOXOXOXOXOXOXOX: q q q U #.>.L.Y.T.T.`.`.T.`.T.`.T.`.T./././.T.T.Y.L.:.#.U q q 9 8 OXOXOXOXOXOXOXOXOXOXOXOXOXOXOXOXOXOXOXOXOXOXOXOXOXOXOXOX",
"OXOXOXOXOXOXOXOXOXOXOXOXOXOXOXOXOXOXOXOXi I.I.>.^ U q q q a R ^ =.-.:.:.>.>.:.:.;.=./ R a q 9 i U / >.P.I.q OXOXOXOXOXOXOXOXOXOXOXOXOXOXOXOXOXOXOXOXOXOXOXOXOXOXOXOX",
"OXOXOXOXOXOXOXOXOXOXOXOXOXOXOXOXOXOXOXT / `.`.`.`.`.T.L.J.-.^ T a i i i i q q i i a T / =.>.P.T.T./.T.T.T.^ R OXOXOXOXOXOXOXOXOXOXOXOXOXOXOXOXOXOXOXOXOXOXOXOXOXOXOX",
"OXOXOXOXOXOXOXOXOXOXOXOXOXOXOXOXOXOXOXq I.].`.`.`.`.`.].`.`.].`.`.`.T.T.T.T.T.T.`.`.`.`.].`.`./.T.T.T.T.T.L.q OXOXOXOXOXOXOXOXOXOXOXOXOXOXOXOXOXOXOXOXOXOXOXOXOXOXOX",
"OXOXOXOXOXOXOXOXOXOXOXOXOXOXOXOXOXOX&.R ].].].].].].].].].].].].`.].].].`.].`.].].].`.].].`.].`.`.`./.T.T.T.U &.OXOXOXOXOXOXOXOXOXOXOXOX&.i i q i ;.OXOXOXOXOXOXOXOX",
"OXOXOXOXOXOXOXOXOXOXOXOXOXOXOXOXOXOXi L. X].].].}.}.}.}.}.}.].}.}.}.}.}.}. X}.].}.}.].}.}.].}.].].`.`./.T./.;.i OXOXOXOXOXOXOXOXOXOXOX&.a I.`.Y.;.i ~ OXOXOXOXOXOXOX",
"OXOXOXOXOXOXOXOXOXOXOXOXOXOXOXOXOXOXa ]. X]. X X}. X X}. X X}. X X X X X X X X X X X}. X X}. X}.}.].`.`./.T.U.i OXOXOXOXOXOXOXOXOXOXOXq T.oX X}.].I.q ;.OXOXOXOXOXOX",
"OXOXOXOXOXOXOXOXOXOXOXOXOXOXOXOXOXT =. X X X X X X X X X X X XXXXXXXXX XXX XXXXXXX XXX X XXX X X X].].`./.T././ R OXOXOXOXOXOXOXOXOX;.R XX X X X`.=.6 0 OXOXOXOXOXOX",
"OXOXOXOXOXOXOXOXOXOXOXOXOXOXOXOXOX: T I.}. X X X X XXX X.X XXX.XXXXXXXXXXXXXXXXX.XXX X XXX X XXX X}.].].`.T.J.N ; OXOXOXOXOXOXOXOXOXU ;. X`.U.;.U J e.s :.OXOXOXOXOX",
"OXOXOXOXOXOXOXOXOXOXOXOXOXOXOXOX;.M s.F / /. X.XXXXXXXXXXXXXXXXXXXXXXXXXXXXXXX XXXXXXXXXXXXXXXXXXX X].].P.Q N 2.f :.OXOXOXOXOXOXOXOX9 a Y Y E ..M.G.m.d U OXOXOXOXOX",
"OXOXOXOXOXOXOXOXOXOXOXOXOXOXOXOXa y.).^.+.m I.XXXXXXXXXXXXXX XXXXXXXXXXXXXXXXXXX.XXXXXXXXXXXXXXXXXXX XK.m 2.G.G.,.a OXOXOXOXOXOXOXOXt f.R.~.).(.H.5.n F q OXOXOXOXOX",
"OXOXOXOXOXOXOXOXOXOXOXOXOXOXOXOXr v.n.9.{ e :.XXXXXXXXXXXXXXXXXXXXXXXXXXXXXXXXXXXXXXXXXXXXXXXXXXXXXXXX-.i +.g.D.x.7 OXOXOXOXOXOXOXOX8 m ! ) G G B ~ P./.i OXOXOXOXOX",
"OXOXOXOXOXOXOXOXOXOXOXOXOXOXOX*.= l b F o.L. XoXoXoXXXoXXXXXoXXXoXoXoXoXoXoXoXoXoXoX XoXoXoXoXoXoX X X].>.^ N b n = =.OXOXOXOXOXOXOXq ;.K.K.L.P.'. X X`.a OXOXOXOXOX",
"OXOXOXOXOXOXOXOXOXOXOXOXOXOXOXa / I.`.}. X X XoXXXoXoXoXoXoXoXoXoXoXoXoXoXoXoXoXoXoXoXoXoXoX XoXoXoX X}.].`.T.P.J.R a OXOXOXOXOXOXOX9 &.].oXoXoXoXXX].`.a OXOXOXOXOX",
"OXOXOXOXOXOXOXOXOXOXOXOXOXOXOXq `. X X X X X XoXoXoXoXoXoXoXoXoXoXoXoXoXoXoXoXoXoXoXoXoXoX XoX XoXoX X].].`./.T.T.L.q OXOXOXOXOXOXOX0 G Y =.`. XXX X`.P.q OXOXOXOXOX",
"OXOXOXOXOXOXOXOXOXOXOXOXOXOXOXU  X X}. X X XoXoXoXoXoXoXoXXXoXoXoXoXoXoXoXoXoXoXoXoXoX XoXoXoXoX XoX X].`.`.`.T.T.`.i OXOXOXOXOXOXOX* _ A.$.Y T Q T B r : OXOXOXOXOX",
"OXOXOXOXOXOXOXOXOXOXOXOXOXOX#.5 ;.Y. X X X XoXoXoXoXoXoXoXoXoXoXoXoXoXoXoXoXoXoXoXoXoXoXoXoXoXoXXXXX X}.].`.`.T.K.&.: ^ OXOXOXOXOXi &.#.B f.E.M.7.0.r.z R OXOXOXOXOX",
"OXOXOXOXOXOXOXOXOXOXOXOXOXOXF ..@.F Q K. X X XoXoXoXoXoXoXXXoXoXoXoXoXoXoXoXoXoXoXoXoX XoX X XoXXXXX X].].T.;.T B } H U OXOXOXOXi ~ ]. XL.R n G K H H 2 OXOXOXOXOXOX",
"OXOXOXOXOXOXOXOXOXOXOXOXOXOXi l.).^.p.n *.oXoXoXXXoXoXoXoXoXoXoXoXoXoXoXoXoXoXoXoXoXoXoX X XoXoX X X X].]./ F f.G.F.4.i OXOX^ 5 q ].oXoXXX XT.K.;.~ & OXOXOXOXOXOXOX",
"OXOXOXOXOXOXOXOXOXOXOXOXOXOXi c.G.F.x.j o. X XoXXXXXoX.XXXoXoXoXoXoXoXoXoXoXoXoXoXoXoX X XoX X X X X X].].^ E C.!.F.q.* q 9 3 g.Y `.oXoXXX].].`.>.q OXOXOXOXOXOXOXOX",
"OXOXOXOXOXOXOXOXOXOXOXOXOXOXt w.7.Z b ;.]. XXXXXXXXXXXXXXXXXoXoXoXoXoXoXoXoXoXoXoXoXXX X X XXX X X X X].].T.*.a W d.q.1 K.I.j D._ :.oX X].`.L.T q OXOXOXOXOXOXOXOXOX",
"OXOXOXOXOXOXOXOXOXOXOXOXOXOX1 f F -.`. X X X X XXX XXXXX.XXXoXoXoXoXoXoXoXoXoXoXoXoXXXXX X X X X X X X}.].`.`.P.&.a s 1 Y.].Q  .b.B P.`.L.~ q OXOXOXOXOXOXOXOXOXOXOX",
"OXOXOXOXOXOXOXOXOXOXOXOXOXOXq ;.]. X X}. X X X X X XXX X.XXXoXoXoXoXoXoXoXoXoXoXoXXXXXXX X X X}.}. X}.}.].`.`./.T.I.&.9 Y.].I.p <.P : a q OXOXOXOXOXOXOXOXOXOXOXOXOX",
"OXOXOXOXOXOXOXOXOXOXOXOXOXOXa P. X}.}. X X X X X X X X X XXXoXXXoXoXoXoXoXoXoXoXXXoXXX X X}.}. X X X}.}.].`.`.T.T.T.>.8 =./ T 8 > i OXOXOXOXOXOXOXOXOXOXOXOXOXOXOXOX",
"OXOXOXOXOXOXOXOXOXOXOXOXOXOXU >. X X X}.}. X}. X X].}. X XXXXXoXXXoXoXoXoXoXXXoXoXXXXX X X X}.}.}. X X}.].`.`.T.T.T.=.- U ~ OXOXOXOXOXOXOXOXOXOXOXOXOXOXOXOXOXOXOXOX",
"OXOXOXOXOXOXOXOXOXOXOXOXOXOX~ &.XX}. X X X}. X}. X X X X XXXXXXXXXXXoXoXXXoXoXXXXXXXXX X X}. X X}. X X}.}.`.`.`.T.T.~ ^ OXOXOXOXOXOXOXOXOXOXOXOXOXOXOXOXOXOXOXOXOXOX",
"OXOXOXOXOXOXOXOXOXOXOXOXOXOXOXT  X X}. X X X X]. X X X XXXXXXX.XXXXXXXXXXXoXXXXXXXXX X X X X}. X X X X X].`.`.T.T.T.a OXOXOXOXOXOXOXOXOXOXOXOXOXOXOXOXOXOXOXOXOXOXOX",
"OXOXOXOXOXOXOXOXOXOXOXOXOXOXOXi `. X}.}.}. X X X X}. X.XXXXXoXoX.XXXXX.XXXXXXXXX XXXXX X X}. X X X}.}.}.}.].`.T.T.P.q OXOXOXOXOXOXOXOXOXOXOXOXOXOXOXOXOXOXOXOXOXOXOX",
"OXOXOXOXOXOXOXOXOXOXOXOXOXOXOXi K.].].].}. X}.}. X}.XXXXXXoXoXXXXX XoXXXXXXXXXXXXXXXXXXX X X}. X X X X X].].`.T.T.;.i OXOXOXOXOXOXOXOXOXOXOXOXOXOXOXOXOXOXOXOXOXOXOX",
"OXOXOXOXOXOXOXOXOXOXOXOXOXOXOXOXR ].].`.`.].].].}.].T.XXoXoXoXXX X X XXXXXXX XXXXXoXXX.X X}.}./.].].].].].`./.T.Y.T OXOXOXOXOXOXOXOXOXOXOXOXOXOXOXOXOXOXOXOXOXOXOXOX",
"OXOXOXOXOXOXOXOXOXOXOXOXOXOXOXOX9 K.`./.`.`.`.`.].T.R ].XXXXXX X X XL.I. X XP.L.XXoXXXoX X].`.R T.].`.`.`.T.T.Y.K.q OXOXOXOXOXOXOXOXOXOXOXOXOXOXOXOXOXOXOXOXOXOXOXOX",
"OXOXOXOXOXOXOXOXOXOXOXOXOXOXOXOXOXa Y./.`.T.`.`./.P.q `. X X X}.].].T :.}.}.:.T  X X X.X}.].I.q I.`.`.`.T.Y.T.I.i OXOXOXOXOXOXOXOXOXOXOXOXOXOXOXOXOXOXOXOXOXOXOXOXOX",
"OXOXOXOXOXOXOXOXOXOXOXOXOXOXOXOXOXOXi OXY.T.`.T.`.Y.q L.].}.].`.`.Y.q L.`.].K.q `.}. X}.].`.K.q I.T.`.T.T.I.=.q OXOXOXOXOXOXOXOXOXOXOXOXOXOXOXOXOXOXOXOXOXOXOXOXOXOX",
"OXOXOXOXOXOXOXOXOXOXOXOXOXOXOXOXOXOXOXi q U #.;.J.L.q =.`.`.`.`.`.>.q T.`.`.Y.q K.].].].`.`.*.i L.K.;./ U q i OXOXOXOXOXOXOXOXOXOXOXOXOXOXOXOXOXOXOXOXOXOXOXOXOXOXOX",
"OXOXOXOXOXOXOXOXOXOXOXOXOXOXOXOXOXOXOXOXOXOXOXa i i - i Y.T.T.T.T.a - R ~ ~ ~ - U `.].`.`.I.i - q i a R OXOXOXOXOXOXOXOXOXOXOXOXOXOXOXOXOXOXOXOXOXOXOXOXOXOXOXOXOXOX",
"OXOXOXOXOXOXOXOXOXOXOXOXOXOXOXOXOXOXOXOXOXOXOXOXOXOXOXT i J.Y.L.T i ;./ &.&.&.=.i T L.U.>.a U OXOXOXOXOXOXOXOXOXOXOXOXOXOXOXOXOXOXOXOXOXOXOXOXOXOXOXOXOXOXOXOXOXOXOX",
"OXOXOXOXOXOXOXOXOXOXOXOXOXOXOXOXOXOXOXOXOXOXOXOXOXOXOXOXOXOXq q R OXOXOXOXOXOXOXOX~ q q i OXOXOXOXOXOXOXOXOXOXOXOXOXOXOXOXOXOXOXOXOXOXOXOXOXOXOXOXOXOXOXOXOXOXOXOXOX",
"OXOXOXOXOXOXOXOXOXOXOXOXOXOXOXOXOXOXOXOXOXOXOXOXOXOXOXOXOXOXOXOXOXOXOXOXOXOXOXOXOXOXOXOXOXOXOXOXOXOXOXOXOXOXOXOXOXOXOXOXOXOXOXOXOXOXOXOXOXOXOXOXOXOXOXOXOXOXOXOXOXOX",
"OXOXOXOXOXOXOXOXOXOXOXOXOXOXOXOXOXOXOXOXOXOXOXOXOXOXOXOXOXOXOXOXOXOXOXOXOXOXOXOXOXOXOXOXOXOXOXOXOXOXOXOXOXOXOXOXOXOXOXOXOXOXOXOXOXOXOXOXOXOXOXOXOXOXOXOXOXOXOXOXOXOX",
"OXOXOXOXOXOXOXOXOXOXOXOXOXOXOXOXOXOXOXOXOXOXOXOXOXOXOXOXOXOXOXOXOXOXOXOXOXOXOXOXOXOXOXOXOXOXOXOXOXOXOXOXOXOXOXOXOXOXOXOXOXOXOXOXOXOXOXOXOXOXOXOXOXOXOXOXOXOXOXOXOXOX",
"OXOXOXOXOXOXOXOXOXOXOXOXOXOXOXOXOXOXOXOXOXOXOXOXOXOXOXOXOXOXOXOXOXOXOXOXOXOXOXOXOXOXOXOXOXOXOXOXOXOXOXOXOXOXOXOXOXOXOXOXOXOXOXOXOXOXOXOXOXOXOXOXOXOXOXOXOXOXOXOXOXOX",
"OXOXOXOXOXOXOXOXOXOXOXOXOXOXOXOXOXOXOXOXOXOXOXOXOXOXOXOXOXOXOXOXOXOXOXOXOXOXOXOXOXOXOXOXOXOXOXOXOXOXOXOXOXOXOXOXOXOXOXOXOXOXOXOXOXOXOXOXOXOXOXOXOXOXOXOXOXOXOXOXOXOX",
"OXOXOXOXOXOXOXOXOXOXOXOXOXOXOXOXOXOXOXOXOXOXOXOXOXOXOXOXOXOXOXOXOXOXOXOXOXOXOXOXOXOXOXOXOXOXOXOXOXOXOXOXOXOXOXOXOXOXOXOXOXOXOXOXOXOXOXOXOXOXOXOXOXOXOXOXOXOXOXOXOXOX",
"OXOXOXOXOXOXOXOXOXOXOXOXOXOXOXOXOXOXOXOXOXOXOXOXOXOXOXOXOXOXOXOXOXOXOXOXOXOXOXOXOXOXOXOXOXOXOXOXOXOXOXOXOXOXOXOXOXOXOXOXOXOXOXOXOXOXOXOXOXOXOXOXOXOXOXOXOXOXOXOXOXOX",
"OXOXOXOXOXOXOXOXOXOXOXOXOXOXOXOXOXOXOXOXOXOXOXOXOXOXOXOXOXOXOXOXOXOXOXOXOXOXOXOXOXOXOXOXOXOXOXOXOXOXOXOXOXOXOXOXOXOXOXOXOXOXOXOXOXOXOXOXOXOXOXOXOXOXOXOXOXOXOXOXOXOX",
"OXOXOXOXOXOXOXOXOXOXOXOXOXOXOXOXOXOXOXOXOXOXOXOXOXOXOXOXOXOXOXOXOXOXOXOXOXOXOXOXOXOXOXOXOXOXOXOXOXOXOXOXOXOXOXOXOXOXOXOXOXOXOXOXOXOXOXOXOXOXOXOXOXOXOXOXOXOXOXOXOXOX",
"OXOXOXOXOXOXOXOXOXOXOXOXOXOXOXOXOXOXOXOXOXOXOXOXOXOXOXOXOXOXOXOXOXOXOXOXOXOXOXOXOXOXOXOXOXOXOXOXOXOXOXOXOXOXOXOXOXOXOXOXOXOXOXOXOXOXOXOXOXOXOXOXOXOXOXOXOXOXOXOXOXOX",
"OXOXOXOXOXOXOXOXOXOXOXOXOXOXOXOXOXOXOXOXOXOXOXOXOXOXOXOXOXOXOXOXOXOXOXOXOXOXOXOXOXOXOXOXOXOXOXOXOXOXOXOXOXOXOXOXOXOXOXOXOXOXOXOXOXOXOXOXOXOXOXOXOXOXOXOXOXOXOXOXOXOX"
};
