/* XPM */
static char *adam_przeniewski_SwBG6zKsXQI_unsplash__1___1_1678542002[] = {
/* columns rows colors chars-per-pixel */
"61 100 116 2 ",
"   c #1C1D18",
".  c #222426",
"X  c #25262A",
"o  c #292A2C",
"O  c #323435",
"+  c #3B3D3C",
"@  c #3A403E",
"#  c #41433E",
"$  c #3D4343",
"%  c #434645",
"&  c #474944",
"*  c #464949",
"=  c #4A4C4C",
"-  c #4E504F",
";  c #51534E",
":  c #4D4E50",
">  c #4E5051",
",  c #525453",
"<  c #575955",
"1  c #595B56",
"2  c #565759",
"3  c #575958",
"4  c #5B5D5C",
"5  c #5F615D",
"6  c #61625E",
"7  c #5F6261",
"8  c #636464",
"9  c #666866",
"0  c #696B67",
"q  c #666769",
"w  c #67696A",
"e  c #6B6D6C",
"r  c #6E706E",
"t  c #70726E",
"y  c #6D6E71",
"u  c #6F7171",
"i  c #737473",
"p  c #767876",
"a  c #787A75",
"s  c #767779",
"d  c #77797A",
"f  c #7A7C7B",
"g  c #7E807E",
"h  c #82837F",
"j  c #7D7F81",
"k  c #7F8181",
"l  c #838483",
"z  c #868886",
"x  c #898B86",
"c  c #858789",
"v  c #87898A",
"b  c #8A8D8B",
"n  c #8E908E",
"m  c #91938E",
"M  c #8D8F91",
"N  c #8F9191",
"B  c #939494",
"V  c #969896",
"C  c #999B96",
"Z  c #959699",
"A  c #979999",
"S  c #9B9D9B",
"D  c #9EA09E",
"F  c #A1A29E",
"G  c #9D9EA1",
"H  c #9FA1A1",
"J  c #A3A5A4",
"K  c #A6A8A6",
"L  c #A9AAA6",
"P  c #A6A7A9",
"I  c #A7A9A9",
"U  c #ABACAC",
"Y  c #AEB0AE",
"T  c #B1B2AE",
"R  c #ADAEB1",
"E  c #AFB1B1",
"W  c #B3B4B4",
"Q  c #B6B8B6",
"!  c #B9BAB6",
"~  c #B5B6B9",
"^  c #B7B9B9",
"/  c #BBBCBC",
"(  c #BEC0BE",
")  c #C0C2BF",
"_  c #BDBEC1",
"`  c #BFC1C2",
"'  c #C3C4C4",
"]  c #C6C8C6",
"[  c #C9CAC6",
"{  c #C5C6C9",
"}  c #C6C9C9",
"|  c #CACCCC",
" . c #CED0CF",
".. c #D1D2CF",
"X. c #CDCED1",
"o. c #CFD1D1",
"O. c #D2D4D4",
"+. c #D6D8D7",
"@. c #D8DAD7",
"#. c #D5D6D9",
"$. c #D7D9D9",
"%. c #DADCDC",
"&. c #DEE0DF",
"*. c #E0E2DF",
"=. c #DDDEE1",
"-. c #DFE1E1",
";. c #E2E4E4",
":. c #E6E8E7",
">. c #E9EBE6",
",. c #E5E6E8",
"<. c #E7E9E9",
"1. c #EAECEB",
"2. c #EBF1EF",
"3. c #EDEEF0",
"4. c #EFF1F0",
"5. c #F5F7F6",
/* pixels */
"W W / ' ' ( ( ( / K A K Y U Y / J J Q J Y J D B A H S E ] W b k Y E K ' ` Q  .] U | ` Q ] ` W ( ( E E ( ` ` ` ` E E L ! [ ",
"+.} ( / ] |  .O.o.' ( ] } ` ] O.@.E k U } ( | 1.-.@.| o.&.%.@.%.&.%.|  ./ J H z  .-.&.O.&.&.&.-.-.-.O.$.%.+.+.+.} +.F g ! ",
"%.| / ' |  . .} ] ( ` ] ' ! `  .} W w Q %.^ Y ` +.| | | ] } O.@. .o. . .' W J f ( +.O.| &.&.O.&.$.+.` $.+.+.+.+...+.g   g ",
"O.' / ' | } ` ( ( ( ' ] ' / `  .] ] f V  .%.@.@. .] O.@.] ] o.}  .o.| | } ] H 7 W [  . .+.&. .o.o.` o.O.o.+.+.+.+.+.g . g ",
"@.| ' ' ' ' [ | ] ` ` ] ] ' } o.' U e * H +.@.| &.o.@.@.} O.-.@.%.@.+.|  .o.A - ` ..+.+.&.&.+.O.&.&.&.%.$.$.+.+.@...g g g ",
" . . .O. . .| o.' / Q ! ( ( ' ] ;.Y f 7 / %.' Y ) ` ] } ]  .@.O.o.} O. .@.&.I e o.O.o.O.o.O.+.+.$.$.$.+.o.o.o.o.@.) g C g ",
"' ]  .%.%.O.| ] o.] ( / ( ' }  .%.J i b ] o.] ( / | +.+.@.@.o.O.O. .%.o. .@.K i &.+.+.+.O.+.&.+.} $.$.+.o.+.$.+.*.! g T T ",
"] ' ] |  . . ...O.| ' / ^ ( ]  .! E l ] o.( / Y ( @.O.| | ] ` | | ] &. .] | J g +. .+.&.O.o.O. .} $.&.$.o.$.$.+.[ L g g ! ",
"/ ( |  .' ' } ' ' } } ] / / ! ! ( I A ` ]  .( | ] [ }  .@.o.]  . .O.@.@. .( U D @.&.-.%.+.+.%.+.o.+.&.+...*.*.[ *.L F C h ",
"/ ] +.%.%.@.o.[ O. .' / ( | o.o.+.Y b U ( o.' } +.%.o.+.%.O.| o. .O.O.O. .' Q E ^ ` ' ' ` ] } } +.<.2.&.......( ! h F F F ",
"l B B N n l i w 8 0 r 9 8 5 3 > & 7 k A g 9 5 d e r r u g k g z g l x n N N A C N N n l g g u 0 , $ @ , 1 * ; g g g h C g ",
"} @.o.( ( ^ Y E B D I B b b I / I E / ` J b g v N A A H Q Q ! ` ( ` ' ` / ! ` '  . . .| |  .} ( H k 7 g F F L [ T L ) L g ",
"W ( ` Q / ' ] } |  .O.J B k H W I n k n E ( ( ^ | } ` / / L A C E Q ! Q U U Y W U Y E W Q ( ( E o.} U k L [ ..( ! L L F h ",
"W / ' ' ( | ] E K Y } W ` E [ | ( Q ` ( | ` ] ! E ! / ] O.o. .o.Q / ` ' ] }  .o.&.&.%.+.O.O.o.} I E } o.( [ [ ( F h ! ! L ",
" .' O.@.} | ( k E ^ o./  .( &.;.O.] ` ! +.+.%.[ o.O. .O.%.O.| o.%.%.@.+.o. .| | ] | | ] }  . . .k k E 2.*...*.*.) F ! ....",
"| Y ` O.'  ./ e u N | ' o.Q |  .` ] o.] O.]  .( ] [ ] | +.O. .@.o. .| } } [ ] ] ] }  .] ] }  .O.k 7 k o.[ ) ..[ ! T [ ..T ",
"{ ' O.X.{ #._ j X i | O.{ O.X.| X.X.| [ | O. .|  .O.@.@.O.O.%.&. .+.+.` ` o.+.` +.&.&...` ` ` ` k o k 2.` o.} +.` ] ] ( ( ",
"=.X.O.X._ _ _ v R _ X._ _ #.#.#.{ }  .O.O.O. .[  .o.o.| ] ]  .o.` `  . .+.+... .+...` ` ..` ..+.k w k -.} +.} +. . . .| } ",
"X.' X.%.X._ ~ G W ` %.+.X.#.{ | ` | O.O.O.| | | ( ' o.O.@.+.O.@. . .o.o...o.` ( &.+.+.+.+.` ` ` k H ` O.+.+.`  . . .} } [ ",
"o.| $.;.#.{ R M / / +...{ | { =.X.O.+.o.[ | | +. . .O.+.O. .}  .+.O...+.+.+.o.` ` +.*.@.+.` ` ( k ` / $.+.+.} }  .} } ` ` ",
"' [ [ ..X.| _ J  .) [ [ [ [ ) | | | | [ ] [  .+.%.O. . . ...%.;.` ` ` ..+.$.%.%. .+...` ` +.%.` H ` Q -.+.o.+.o.| ` ` ( ( ",
" ...@...%.+.' L L T ..&.@...) [ +.O.O.@.%.%.%.;. .|  .+.@.O.O.%.:.&.+.+.$.` +.+.*.:.&.+.%.:.+.( k E E <.+.+.<.-.&.+.+. .+.",
"........[ Q C m T T ) ! ! / ! ..[ / W / [ | [ [ +. .O.@.O.' ^ ^ o.o...| ( E U ( ( ( ( Y ( I K k ^ E I  .} o.} +.+...| [ } ",
"a r 6 t a t f C @.T m a h x a e l w 2 3 q e y e 1 = % * - - 4 e 0 t g k g g g g 7 < , , 1 $ 8 k ` ` k E Q Q H Q A k g g g ",
"T m h F T T ! ) [ ..F T [ ) [ [  .I W ^ @.| ' Q U f , - 8 d b V V B N V Y D E ( ( D I H k k k I k k Y ` | ` W W Y k k } ( ",
"x C F ( ] / L V F T F T ! T ) ) b W Q  .( / ' ( W I D D K Y U D ( E K V V k A k k g k B B k g g g g k A K I Y E k V D Y k ",
"h F ( ) | ..{ R ! ! ! ) / Q ' / / %.N Q K ( ] | ] | } ` ' | } ( +.&.&.+.+. .+.H ( Y ` ..%.:.+.` ;.+. .| ` ` ( ( } } } ( k ",
"..&.&.) _ ' ' W ..) ) ) / _ } _ ' ` 8 A Q &.| O.[ | ' ^ ^ ]  .o.` ` +.o.o. .` r D ( &.+.` .. ...` ( ` | +.+. .+.( ( T ( U ",
"[ | { { | O.| | [ Q _ { _ X.O.| ' T e 9 B  .] O./ ! / ] } ] ' } +.O.+. . .O.` r - g ` +.} ` ` | .. .` .. . .` ` +.( Y Y k ",
";.O.X.X.X.' _ ~ / / O.=.X.o.X.=.&.} b , f ]  .} ( / ' O.@.| ' ] ` ` | ` $.O.` g $ g ( ` ..+.....} ` ` |  .+.+...` } ( U g ",
"O.} { | o.O.#.=._ ` =.O.X.{ _ X.] / B n U @.%.` ] ] ] } | | | o.` ..+.O.&.( U g I I | +...O.` | +.+.+... .....+...+.+.` k ",
"O.O.O.O.O.X.X.X.X.X.O.{ O.#._ { O.( n Q W U | | ` | o.] '  .O.O.(  .` `  .Y U V ( I ` O.` .. .%.o..... .} |  . .&.` ` +.L ",
"/ _ X.| X._ R _ =.{ { #.X.{ { =.&.L i ! D C &.[ { #.{ { X._ X._ ` &.( | ..E ( D Q Y O.} +.O. .@. .o.@.@.@.o. .o.@.O. .@.b ",
"| } X.{ #.{ _ _ X.{ { { { X.#.{ ..F a D C n ..| _ | X.X.O.| { _ W &.} W W W ( D I U o.' } ] ] o. .o.O.+.+.O.+.+.%.O.} o.n ",
"' ..=.{ { { _ { X.#.=.#.#.=.#.X.) ( ) [ / n / | #.O.=.=.#.=.O.=.&.+.o.&.} D M I V K -.<.5.<.&.%.@.-.-.@.@.%.&.%.%.-.-.@.v ",
"f h j j y y j Z G G P P G Z Z P F F [ ) Q b N U P M G M j j j B k D I H K I H ( W J J n D D W Q W ` ' ! ! ] ] ( ( ] ' Q i ",
"D f r e j j j M _ _ R R R P R ~ ! T T ! ( [ E ' ~ P U Z j u > 2 D H I D H K H ( ' V 9 @ * - 9 r w u r 4 > , * + O O @ 3 w ",
"T V B C G G j P R P P Z P ~ ~ R T L F L W [ W ' R R / / ` | X.X.` ( W ( ( k g n l f u g J I ( E ^ ( / U D V b g i r e a l ",
"U T / W _ _ _ X.{ { _ _ _ { X.{ W ) [ [ / / / / Q / U J K E ^ U D o.O...o.o.+.( %.+. .} @.` +.] ' }  .o.O.@.%.&.O.%.%.o.| ",
"| | { Q _ =.X.{ #.X.X.#.{ P _ #.O.@.&.O.@.] %.' | ;.| ' ` ( ( A ( &.` o.o.( &.+. .&.%.+.@.] -.&.O.O.O.@.+.o.O.%.O.O. .| %.",
") ) / ' [ | [ { _ _ { _ _ G _ X.+. .| O.$.+.o.| @. .O.O.] | ' D ` -. .o.[ ` -. .+. .] ]  .O.+.+. .o.#.#.+.%.@.o.[ o.@.O.O.",
"..| ..O. .o.O.$.X.X.X.#.{ _ { =.}  .o.o.O.O. .' ] ] &.` ( Q ! x ` -. .+. .] &.o.O. .|  . .O.O.O.%.@.%.@.@.+.+.@.@.&.%.O. .",
") ) [ ' _ / { X.X.X.X.#.#.X.X.X.{ o.O.{ { o.| ( | (  .! | W ! B Q &.o.&.O.[ &.O.+.+.+.@.%.&.%.%.-.%.O.%.@.O.@.%.O.@.o.| ] ",
"[  .O...| | O.=.#.X.X.#.=.=.#.X.#.=.$.{ ' | O. .Q ....n n K L a W ..O.&.O. .&.O. .o.+.+.+.+.+.@.&. .o.@.@.o...&.&.&.&.%.%.",
"....O.O.+.O.+.$.X.X.{ X.#.X.X.X.O.O.X.{ _ _ ' | ( [ Y h 6 6 0 a Q  .O.&.&. .+.O.+.+.@.%.+.+.%.&.&.O.O.&.&.+.O.&.@.+.+.@.@.",
"@.O. .X.O.+.O.X.X.X.#.#.#.#.#.#.O.X.X.#.o.{ ' [ *.) n D x C h T ( } O.&.&.O.+.+.%.%.%.@.+.+.+.@. .} | O.o. .|  .%.+.O.%.@.",
"%.O.[ | O.@.%.=.X.#.#.#.=.=.#.#.#.=.=.=.$.O.X.| [ ..F F ( *...! &.&.-.:.-.2.:.2.+.+.%.&.:.1.:.-.@.%.@.%.&.&.:.1.;.&.%.&.&.",
"F C V B C P W ^ _ _ _ _ _ _ _ _ R _ _ W R / Q I ( F F ) ..F m ) e 0 t r t i r a e r i k n B N n n n B m A K Y Y E K H D D ",
"& ; 1 5 6 6 8 6 9 0 r a h n n x m V b F F C T L ..Q m L ) ! ) T 6 # # 1 t 6 f e l F m S C V C W ! Y J D D F T ( Y F Y D D ",
"F L L T W / ! ! T Q ! ) ) ) ) ] ..' ! / T ! !  .Q ( F L ! / ! h 1 x B C C F U T C Y m D F F b b n n D F T ( [ ..L L ! ! ..",
"K J F D S D S B n B D D C B C D W G G G F ) T @.F ( Q L W Q P u h ( J K J L j e x ! ! [ [ [ ~ W Q ! ( ) } ] ` ` [ ] ) L ) ",
"' ) / ! ' O.$.O./ ) [ [ | [ [ [ | / S G W ..W | &.@...&.=.+.| ` +.@.W [ @.O.P u L >.>.:.O.@.o.X.@.&.@.@.O.+.O.| %.+.Q z D ",
"/ ! R R ~ { X.X._ _ _ {  .| | } #.| j c ~ { _ _ @.( _ { X.' _ #.| / ' [ X.X._ y / 4.=.o.{ =.=.O. .O.X.X.O.=.=.#.,.%.R q r ",
"@.+.X._ { | { { { { | O.@.$.O.| X.X.y 8 _ =.=.O.' / { _ { | { X.O.[ =.O.{ { { : c o.+.$.X.=.=.#.&.&.=.#.#.%.=.| X.#.~ M Y ",
"_ { X.X.X.#.#.O._ { { X.O.X.X.{ #._ y O P #.O._ ' _ { { { O.{ | X.X.O.O.#.=.{ 7 c =.,.3.=.#.X.X.%.=.#.X.O.=.-.=.$.=._ H o.",
"~ { X.O.#.#.O.{ _ X.O.#.=.#.O.O.X._ j X P =.X.{ | _ X.{ X.O._ O.X.O._ =.#.=.R c _ ,.X.X.{ =.=.O.@.$.X._ { #.=.#.$.O.~ G @.",
"| X.X.X.O.O.X.X.=.{ _ #.=.X.{ X.=.R s G _ =.X.{ { { { X.X.O.X.O.X.#.O.X.=.=.R R { X.$.#.O.=.=.#.#.#.=.=.O.=.;.%.#.O.R P _ ",
"=.#.O.O.O.X.{ ^ _ X.=.X.X.O.X.{ { H j Z G R { =.| X.{ X.{ { { o._ _ X.X.=.=._ _ X.$.#.O.X.=.=.=.,.=.#.X.X.X.X.X.=.=._ R P ",
"#.X.X.X.X.X.( Q G _ { ~ _ O.X.#.o.U V J N G ~ { X._ ~ { X.#.| ' _ X.=.=.=.=.{ #.$.$.+.+.#.=.=.#.X.#.O.X.=.=.%.%.=.O.R P _ ",
"=.=.$.$.=.=.%.+.=.=.X.X.,.=.X.=./ i d / P y s G ~ R P W _ _ ^ Y R P ~ R ~ ~ P R o.+.%.&.=.=.#.X.#.=.X.| O.o. ...P R G P _ ",
"s f j l l z b B f f t g N v d s 9 g L L J ' @.Q P R ^ W K C J T W L Q W W W U U T ! ' ] ( ! ! ( G B f p h z n B L / / [ #.",
", 7 e e t a z m x x x t y j l f ) K Q ( ( T ! T I U U K C C K / S b F Y R U H J F L Y L F F L ! { E Y ! ( [  .) ( [ ) | O.",
"m C J L L T ! ) ! K D m a h m x D x n n L L T L T K F F L L T T T C T ! T ! T W [ ) [ [ ) / ) ....Q (  .) [ ..! ) ( L ! { ",
"/ / ) ) / ! W T F t l Q W ! ' / )  .@.[ @.[ @.@... ...O...[ [ [ *.) ....] | ..@.@.+...@.+. ...+...C F Q L [ >.+.[ @.| +.+.",
"%.@.#.%.;.;.#.} { s : W ~ [ { _ ..' _ [ { ' ' { ' { [ [ [ [ | [ [ X.X.{ | | | [ X.[ [ { { { [ [ O.j L [ @.*.=.@.O.O.@.....",
"| | } X.O.O.} / ~ s 6 ~ ~ _ { O.X.{ [ X.X.X.{ [ X.[ X.X.X.X.X.X.X.X.X.X.X.O.O.X.O.O.O.O.O.X.X.X.O.h Z R =.,...[ | | |  . .",
"o.o.O.o.O.O.| ` ~ i 6 ~ _ X.X.| X.| | X.O.X.X.O.X.X.X.X.X.X.X.X.X.O.O.O.O.#.#.O.X.O.#.#.#.O.O.X.{ x b G #.O.! [  .| | [ X.",
"X.O.o.o.X.X.| ` ~ s y ~ _ O.X.| #.O.X.O.O.#.#.#.#.#.#.#.#.O.#.#.O.#.#.O.O.#.#.#.#.#.O.O.#.O.#.#.| S R _ %...[ #...X.[ X.O.",
"O.O.#.X.X.X.X.{ P l Z X._ _ | #.X.X.#.O.#.#.#.O.#.#.O.#.#.#.#.=.#.%.#.#.#.=.=.#.#.#.#.O.#.#.#.=.O.Z ! X...' #.....X.[  ...",
"#.#.#.X.X.O.O.X.P c P X.' ' ' { _ { O.#.#.X.| ' X.X.X.X.X.O.#.#.O.#.#.O.O.#.O.O.%.#.#.#.O.#.#.#.O.x F [ | ' #._ ..X.| X...",
"X.X.| { { X.X.| P l P X.X.#.{ / _ | #.#.#.#.X.[ O.O...#.#.#.#.#.#.#.#.O.X.#.O.O.#.#.#.#.%.#.O.O.#.Z Z ! #.O.=.[ X.........",
"=.=.#.O.#.=.=.#.P c _ #.#.#.X.| #.#.=.%.%.=.,.;.=.,.,.,.,.,.=.=.=.;.;.=.=.=.=.=.#.=.=.,.;.=.#.O.) Z h F O.' ..O.[ X.X.X.X.",
"~ _ J { ' / _ { j G ~ / _ { / P P R P ~ R Z J Z F B c Z G P P P F B n G Z c c G b c f q j l c j h J J F ~ [ ' / _ ' ' ! Q ",
"k B j y : = = : b G R R R ~ ~ P R ~ P ~ P B P f s j x G R ~ ~ _ R R ~ _ { _ _ ' ~ P S B R ~ X.{ L / / R ! ) / W ..' L Z b ",
"_ _ | ^ ~ P R ~ G R R G G U R U S ~ R ~ R ~ _ c P P ~ _ ' _ _ _ P P R ~ _ _ ' ~ { ~ O.X.| ~ _ _ L R W R P U ~ T ) ~ R W / ",
"U l R _ O._ ~ { _ _ _ ~ R ~ _ _ G ' _ P P P Z Z _ ~ _ _ ~ _ _ ' | X.[ { | X.X.X.R B { =.#.| #.X.' / [ O.{ | @.@./ ! ' O.%.",
"P i J { ;.X._ X.{ X.O.X.{ X.X.X.O.O.X.R _ Z q #.,.=.#.#.#.%.=.,.O.X.X.X.{ _ _ X.O.j M R X.O.| ~ _ ! ' .._ ) [ [ X.[ ] [ ' ",
"Z s S _ | | X.X.' X.#.O.X.O.X.X.{ R R R { y o O.@.=.#.X.X.X.X.{ %.#.#.=.#.' { #.~ q y M | =.#.X.| | @.@.O...#.#.O.O.@.O.X.",
"R c M { { { X.{ _ { O.X.X.| { { #.[ _ | { 8 O Z [ O.=.#.#.=.=.#.X.X.#.X.{ { { X.[ M P ~ #.#._ X.X.@.O...#.@.@.%.@.*.*.%.@.",
"P y 7 { O.| X.X.{ O.#.#.X.X.X.| [ #.~ R P i i c { #.=.=...X.#.#.#.=.X.' _ X.#.#.| Z P ~ ,.,.' #.X.@.X.' O.#.O.@.#.%.%.O.X.",
"A 7 d ` X.` } #.` { X.#.#.#.o.X.X._ ~ P P s G b R ,.O.#.#.#.#.=.X.#.X.X.#.X.| X.' G ~ G #.X.X.=.o. .O.%.%.o.+.%.O.o...O.+.",
"M u M } o.} o.#.` ` { X.o.#.` ` [ { X._ _ c ~ P Z #.#.O.#.#.X.#.{ O.#.O.#.X.X.#.X.m Z n #.%.X.' ] +.@. . .%.&.o.&.&.%.%.%.",
"H A E o.} { } ` ` { X.o.#.#.o.X.X.#.#._ R c _ { Z { =.{ O.O.X.=.X.#.X.X.X.X.] X.X.G ~ ~ #.X.#.| O.&.&. .o.&.-.+.O.O.o.O.@.",
"M M ~ { { } o.X.{ } ` X.X.X.X.o.[ X.X._ P h / { G ~ ,.{ %.%.X.#.=.=.X.O.,.,.=.=.~ c n G / { ,.O.&.o. .O.@. .o.#.&.&.%.+.O.",
"v G E E ` ` { ` { #.} } ` o.` o.X.#.X._ P s Z Z h Z { R { ' R ~ _ / R P R J B M j j P R G Z _ ' ] Q E ( ( Q / ] ( ] [ ! U ",
"M M M M k k k k k k k k Z k k k n n j n c j R ~ G P ~ P P P P P Z P R R R P J R ~ P R { X.X.X.U U E E Y Y ^ / / A Y ( W H ",
"I H G I E ^ E ~ X.} =.o.` #.X.` #.X.P R P Z _ _ { #.{ ' P ~ [ { O.#.| / ~ J Z G Z Z c Z Z G ' X.( ] [ ( Q ! ( ` ! } O.] Q ",
"G M v M E E H P ` ^ ` ` ` ` ` ` P P Z R P Z R Z G _ ~ X.~ ~ { ~ _ R Z M P ~ ~ ~ ~ | / | X.{ X.| O.} }  .' Y E ] ` ] / D l ",
"X.} { } { ` ` } R { o.X.$.M H E P ' { X.#.X.[ #.#.#.#.#.O.X.X.X.#.| q | =.=.#.,.#.#.=.=.=.=.;.=.&. .@.&.&.n Y ]  .[ } [ ] ",
"X.X.} } } } X.} #.#.X.' X.v k M X.#.=.#.=.#.#.=.O.O.#.#.#.O.#.O.X._ 2 ^ #.O.X.#.#.=.$.#.$.$.=.#.%.o.%.%.%.A Y +.%.%.@.O.o.",
"{ } X.} } X.X.X.| X.X.X.$.M $ > =.#.X.X.{ X.#.X.O.#.O.#.#.#.#.#.#.~ 2 ~ %.#.X.X.#.%.$.#.#.$.$.O.&.O.&.@.+.D g J o.o. .| | ",
"{ } X.} X.X.} { X.{ _ _ } N * y =.X.X.O.[ X.#.X.#.X.X.#.#.#.#.#.#._ 4 ~ ;.%.#.X.$.$.=.#.$.=.=.$.%.O.O.@.%.J > 0 +.+.O.O.O.",
"X.} } X.X.{ { } X.X.X.{ { G y C O._ [ #.O.#.#.[ #...X.X.#.#.#...X._ q ~ =.O.O.o.$.#.#.#.$.$.=.=.o.O.+.@.&.E 9 g %.%.@.@.@.",
"X.{ { X.X.{ { } { { O.X._ Z j G ~ ~ { #.O.X.X.{ #.X.X.X.X.X.X.X.| _ y ~ =.X.O.o.=.#.O.#.o.#.X.$. .O.%. .o.I N Q O.O.O. ...",
"} } { } } { { } #.{ ' R G j G R R _ { #.=.X.X.=.#.O.{ { X.X.X.X.X._ i ~ ;.X.#.O.#.O.o.O.O.o.o.@.+.@.&. .+.K Q ' @.@.@.+.+.",
"o.o.X.} { X.X.} X.' { ~ ~ c R G P / _ [ #.[ [ =.#.X.[ [ X.X.#...X._ i ~ ,.o.%.O.#.O.o.#.$.O.%.-.%.@.%.%.2.W ] E O.....O...",
"o.o.o.o.o.} } } #.^ I I A A A k Q ` ` } } o. . ...+.+.+.+. .} ..@.D k W  .&.&.&.&.&.*.&.&.+...&.+.[ ..( ( m L ( L [ @.@.@.",
"~ ~ ` { ` ` ` } E H A H A A A H H I Y E Q Q Q Q ( } ] } [ ) Y T W D K Q F D D k F k k k k D g g k g C L ( V L ( ) @...) ) ",
"A A G I E I I E E H H I I A N I E ^ ` ` ` ) ] ) ] Q k g g V L ( Y K Y ( ) ) ! k S F F Y ]  .] ) [ ( [ ....( ( ( ) ..) ( ( ",
"` { } } o.} } } ^ ^ E E E k k I E ` } ` } } } ] T ) ) [ +.+.) ! Q L C C Q ) F g k F Y T Q T ( [ ..( ( ( ( F ( ( ! ) ( ( ) "
};
