/* XPM */
static char *_a0f678ad5cd4acbe1a99f9877ab09e5E3UTsJnzGbOsQyv8[] = {
/* columns rows colors chars-per-pixel */
"100 100 82 1 ",
"  c #161613",
". c #171812",
"X c #252621",
"o c #2A2B25",
"O c #2D2E29",
"+ c #33342E",
"@ c #363731",
"# c #373833",
"$ c #3A3B36",
"% c #3D3E39",
"& c #3F403A",
"* c #42433D",
"= c #454641",
"- c #474843",
"; c #4A4B45",
": c #4D4E49",
"> c #4F504B",
", c #52534D",
"< c #555651",
"1 c #575853",
"2 c #5A5B55",
"3 c #5D5E59",
"4 c #5F605B",
"5 c #62635E",
"6 c #656661",
"7 c #676862",
"8 c #6A6B66",
"9 c #6D6E69",
"0 c #6F706A",
"q c #72736D",
"w c #757671",
"e c #777873",
"r c #7A7B75",
"t c #7D7E79",
"y c #7F807A",
"u c #82837D",
"i c #858681",
"p c #878883",
"a c #8A8B85",
"s c #8D8E89",
"d c #8F908A",
"f c #92938D",
"g c #959691",
"h c #979893",
"j c #9A9B95",
"k c #9D9E99",
"l c #9FA09B",
"z c #A2A39D",
"x c #A5A6A1",
"c c #A7A8A3",
"v c #AAABA5",
"b c #ADAEA9",
"n c #AFB0AA",
"m c #B2B3AD",
"M c #B5B6B1",
"N c #B7B8B2",
"B c #BABBB5",
"V c #BDBEB9",
"C c #BFC0BB",
"Z c #C2C3BD",
"A c #C5C6C1",
"S c #C7C8C3",
"D c #CACBC5",
"F c #CDCEC9",
"G c #CFD0CB",
"H c #D2D3CD",
"J c #D5D6D1",
"K c #D7D8D3",
"L c #DADAD5",
"P c #DDDED9",
"I c #DFE0DB",
"U c #E2E3DD",
"Y c #E5E6E1",
"T c #E7E8E3",
"R c #E9EAE5",
"E c #EDEDE9",
"W c #EFF0EB",
"Q c #F2F3ED",
"! c #F5F5F1",
"~ c #F7F8F3",
"^ c #FAFBF6",
"/ c #FEFFFA",
/* pixels */
"DVNNDKHZxZBjxbzknZZGZZZCZGZNvnBZu7ZZZZHLJUPLJJPHFJFLHHYFMIbKEWQE!QE!QPJYPUEEUJAMbbpuzGDYIUHHUKZZCHUL",
"ACSSDJZmmZZBvatguuluuuyuucunZKHZZZCncunuvfxBCCVFSHVZAHJzlCbE///^^EEQUE!P!TPY!!ETPYZMLHGALRZZmnnCvvBu",
"bmDDHLJm1ugjzbNDNnuuvuyuuuZDZZHILLIZHWHN51szmFBVDLSAASDkvblDFKPQJLLUTYKJJQ!EERE!~FdsCgmBNuuuuuZCCNu&",
"kjagjgvtXpHKJUUKGKLuyvunHKKKLLZKLZLKHZvvvzVMVYIFAHHPPLTUPHHGckgkMgjvzzvzzbmZHCbAMgervtvDIZNmNCZSuBuu",
"FN3jstgrZHKFDFGJLGIH4*uZuuuuuuuuuZmZUuNIGVnbnCJGLIPUILJHPJPGvnvczx92istkbxzMz5<gkmZzlgbVZHLUZNZHIKHG",
"AV:LJKUEEIJPUKHGZZIv5yuCSvuuBZmzvuu0u*0ubSFFFZmffMAADJLJPZbgufgdekMZJRERYGAJEJAFvNBljxxmuuuulvnZCCZC",
"KLtADDFAknDHZVZDZLmZBZZR!!QQRHKTTmZZZZuuexAAJLVnlCGZAFDJJSCBMNVmaBPYUDmmcMBbbMbzNccZJFDDNuuuuzuu5uu2",
"LLj3jcFmxgkMVZZZZBZKjZTZHZZIZvvZZmlvmZZTRGNfghdGRYLJYYJPKPLULADSHzvAmcVBAmmmvzcbzcgjxaxgvmzvBuuvnuuu",
"FY!bpiziyyiigikcvZZ80CCmmlnCnCCnnZZZnMNCmCJZmw8ppfxjcUYHUPPPJASGBgtigvZFDNFVMbnxhkzvnjufvvmznuuuuuBG",
"9ZWnzfiypseitsi0uCv2yZCnvvCIGSNmcnnnCZmzvbZGTPZnw:us9txZAGJJSMksJJJJDBkuyvFFYPVMGKKHZNZZZZZNmmZZKZBu",
"FFJkfVFJAMzdJFDkCuuu8uCZZZGGDZNvZZZZGHZZZZKZHJHLJxL~x1aqie9waa7%HKEQQQEPVbvcMJPYZvaeuhMZZnjluuuuLRHn",
"FFRMgFFFBGcgHHDLzuuuunCmKZSCIGIJZLULZmNZZnmCGGZZM3VmgbZDAZCBBVmvkdssuugxAMVm6>3tVbzbZLUHjuZWLzlZSRUS",
"Y~QjkJMbCms1ckxsyCZmvu8gvCZKByhCZJLJZCMMzzllvmbZ8;bknJGSPJLPKHHLPKHZxdfgskkg9,=pLLUHZZZMzvIU~QQQULLG",
"Msw=3kvNmHmbwcbxvCCCZculdnjvygcCZZMCZJIZGmfugvgssVAHJVYGJAVDJKJHJPEYKPPJZZAFFFmvzjfuuhzzcvZjZTUNu7uu",
"guvkiwapcMvvAFJFZZCCnCZCCCyq0lbunzuuukzhfzzlur58kMASAnmAAZZVmnMCMBZBBAFZVmDAMVZMZHKKUKZMZNc*@5uj*,uu",
"gMVuayayew19EHVHZZCZCnnmCZKCs4cCZLIZZZZNJZZJBzuzBANDZxvmxvnbnMMbVMMBmbvkmbBmZbxMzVNMNmnBcZZ9qZZZ7NHC",
":69rr9qe7uy&mWGKKKILHZZZDKCFAduJGKGZZGJLHKKLCd4yxmkkkccVMnBCMmbkkvbBkkxvvajzgvVCABCBxnBnVZ9gKbmCuNvn",
"392;>39q7IByvIHGDHHGGZZZIGAJYGuZCGZGIKGZZGGZby&,ruikmCMbsgskACmZCCcvkkhbMNMmbkzZmzcNvnCSVMvjnSCKuuZm",
"4zVbjpq>2uuuBZmZBCZCZZHLJGIKLm>CZZCmCckhdlcCDJSIPJLWEEHBnxtrvVBDDJZZFVaruatpxvbvcuuzuyrfnVHDALYLuuNv",
"<skgfjlducuuNGZCNmmNmmBGACCFIs#gjclhhlcnCCCnCCCHJPT~YPFCFHKFBMg6,0uukACmNvmZmMFVZBmNnpazjgfckjmb7&uB",
"6q549ry078*@,uBZHZZZZZZZCFFKn4sCZGZZZCCCCCCCnnmngxATJKHHJHFAZAmi$6mCMAZcVlcAVCLUNnNccpfcvdjzvxjmG0uS",
"parijzcxczluu522uzBxvZHGACSIi1DCZGGZZZnvlbCnmvCnbMVJAABBMAAAAktse3hMmBZNBMzpzCBBSVVzzdjfdlkbZBNZKu,u",
"mCZGHZZAZHHGZZZNvZHNcuzcCMln4>vSZKLGHZCCZZCZJCIIYUJPGSmmMhefCxq9u$<ybBBBhbn9qnMVFBZnCNCkizfjvAUJKu2u",
"YICNNbBCBZZZZZZZZZZKKZclghiHYGyfcZLLZCCZZCZLUFUIRQYEYGmmbfsst9ri8@<tBBzzMpkytVDJGMSSUPLxdingxRJJZBnB",
"DJCCCCMmmHZZZCZZZHLKHHHHvy5ydZlsuuuTGNBZCzcMBAKIPPYYYTPBgvVxf6>3O@uvZZjhjzvuuuBZZZIKCCnuikkNVvvNKGDD",
"mGCnCKGCZZHHKLZZZZHLUULLHULu4CIlCuulNGBZBZZDDIKKJJLUUPYRPAAbfkp<7*uZycBblvmBZcur0rubzuuq8yw9:%@zmmmm",
"lflCHFCCZvCZZZZHLZZZHHZKGHKGdywuzluuyyNZCMxslCNSJPYYYPJJVMaesJPPKWYZ7sjueuuuuuwuzvbu0unHBNMmAA:cZCSS",
"CDGMzbcjCvcCmlZCZZZNnvcvmmzZmy5ycuyuu*yugpkgvnnMAHVbVFAMxbbMHTJYIIGTF96ujuq2-5uZNSDNzuuzbB9,au28uuuu",
"mdy80848lfCjuhhulmCcjhlzKZZLGRQGGZZnzy.uDNDmygkzvBbzBFVvkukMFUEUURQRWHWBJHLv2,uHSSSDLUIIPJJ9bbkkuccc",
"uyuyy4&*luRZZZcu2uZKLZHJLHZHIKGGHLKBZB4u^~^YtGPYUYYPLZzskjMMJLKFIZNBvnKzuzMc5$quBDGZNnmBCBF0VbVbNCDG",
"uqwq2o+mZCZuuuCCLULZZZHLLUKCZNlCZZNcjzu5ecJDsEYPLHHLJJLPJYYHPUJUKJGYTJKGMh8cZvvlvmclxxucxbZ3tstguucu",
"NZZmZm0yIUZlu2ZHIIKZHZZLZCFCmCvnuunjnZCmADUxzUYUPLLJHUYKTLJKALLPJITIIZKGDv;lDSSUHHBmSKLTP!aO@=<:ruuu",
"FAZmxCJz9ikgs<9FHKLDKZDHZZZHZZnnKZNZZmZ~WRTTDnZZKZZCncznlzluuuuwqitsxxMbkt=sbAVgsbbkkPYYVAFg3M:6VAZB",
"xbMBFMbMwt3:kbg9CmBNbzzdhjuuuzzjnGGzuunZmBZBGGu*58uuuuuuZnzcNnvnMxtwakkgVkgAAAAkgbxxxFFVgmHMAEfxnMVA",
"Vkbxkkbs<9tkAkkMz54uuzZmnNZNZZZlcVZDLZlyu8uuuuuvNmNZZmmZZZZZZZLIVbkgbVMgMMAFJFJJJJFJFFDVJbvbQDebbzfa",
"sxmkxt<%#APAksMFZuuGDZZCZZZZZZZZZZZVnlulcNu4uGTQZCNCZmnmNNZnlZZj9xMBbbAMgAFFAFJJJAAFAAVVAJFfPmitkbDL",
"6gAVMkkAMFbVFVACBkfNMMMZZZZZZmZKDBvzlmvuzBuuGUIZncvmnuvmvZZz9ujjMRYYPJC:<FAJJJFFJFFJJFJJFPAwAYV8MNMn",
"AkkssAPJFPFJJJJPSZzlvnlzzljlzcczNnvuumnxuv,0LGzuccnBCBvmmhhvlju5fYEEUYP9<PJPJJHPJFJJPJLFJHJbMbVMkgss",
"xVVjgJAJJPJJJPFADBlszzjjzzzznZZZZmNBZZxuu0@-uuuuuuuuuzuuuyzZJny1xCFAMVJxgYPJJJJJPHPJJFJFFFPVFAAAFAVV",
"YAVVkJJJFJJPJPFJDNnjhufzzznzjuuuuy75yuuu0-2nGmnCmZZHZZLLmZZLLZZZsqgg6=<ikVAVJPPPPFLJPJYYYJFgVAAAAAAA",
"ie9iuDVvbVkzzbMABVFk%-ebmZBZZuuuu8yuuuuuv7uLBmNcSJPJKJKIIUKHIGZZbVPPkgk<*uNluuuubFFFFAcgggMi=<>;66qt",
"VcVJJJVBFPHAMVA:uMp=0zkcZHZHZZZZIITTKSITTS5vmNBGSDAAHKJJHJLZZZKNMJPPJJPJ2lNnCvuBVACVMzsisZAMAk:wkkkc",
"EPYVMzbAVFQ^YYJwAZa<uxMkuvuuvZZZnZKTRUKDCG&uBDBCSSVVFHFDKZHUGGK,xVMVPPDDlZUHIRTTPPPJJFFVFZcVPDkYERYY",
"AFVisigxLbBFAJ9wHALEUFLvuQTnluZmZZGZDDmuNu8uuZHGFHFSDDSFLUQL^!uvVMVFFFVgzuuZZKUSkkg9<iAPADFFVAMMDAAD",
"zxgsmbxbztsith5bfvkbNVZVBnZZILIKHGDSCCSDCNIBBHHZmVNMmccmzmzvzd;zbbJRJYYAfBqOuuuusuw9wss<tismMftFADDZ",
"kAVVFJAAv6ukDJKUFELURRHUZ,CGZNNGZCZDCNnvvnmNmnmBASACDZZZDZDm5dzagkvkgkggANlkmuuNBVVMxkgsti33wggbisgg",
"fJYYJHFVJiFERDLHPJPUKDAJHuLZVZZZSBnZBSBmvvuBBNBHFFADKKHPHHE82njNMbxgMFAULPYTTTUUJPJJJPYYEMkZMMztzvvz",
"kBVFJADFmqZFAPGFJDLAJKLRZzucKZmCvnnuuNvvDvZSZZZZSDSDHHKUHUa5zfhewegvMMkvxmMlucnzsxxssssgi;6Vvxmxzccx",
"muYFSJv9w2JPHISRKIGGGHUCuuu$2uNZzxzzxjhvbvcNDDCDAVNAJDFZGKM9MCBy>quuuuuuuuuuzlnBmvuuuuuzly5CCCLCBBLA",
"skVAvJzGJsFKGCmNvCCZSuNuuCmu24uuCCczvlkvmvznCAFJFHGFDZJUJYmcVkMkue2-2q00y8yjvzuzujzzuulullyyclCckfgw",
"Abmbgkitd0cvzjmxumvuuNnuuKWGmumuzjjvCCCCCCCGGHGDJLPLJKGGGm4pcxnzcvnur,&20ruuluuyuuyuzzvhjC4yxlcxsjhj",
"gkzpxsjxsriwriueuuuuuuuu5WRuvLZNnzjjzzvmzhldhcCCCBk8*2elzlkCSHxduuuuju788ycluuuqyyyyyyylzlyCCCCCAFCA",
"zfwbAHACVNVZVf*>**,5,7*&uQWuuzuvCCmmNmbzhuy5rgMmxzitwsiyVVZBMFADZSBcnuumHncu7>0ry*4ylnuuyy3vCCCGAJDA",
"PsqFcVAMVVCAFBfDvvuuuunmZKGu25uuujvCCZZZmMmlnMnjizxCVGDZBVxnAVAZZSZNNBDNuqryyqyuy4BGCDKLDKlyjzlhkcmj",
"Hf<ucBZHGCnvNfgbCucNBZBZZnBZzcuucuuuudzvvCmsNMbhjzrcNHHNDJZFGnbACBZNcvNvnmZSKKIHnzzucnCCCSx2yaffkgg;",
"mmbVskxvhydgd*kHZcNZZZNZKZZZZUHZCjuhy7570su8nZZmxk,wimLKDAADFSzGLGGSzvBmzcZGIZCSGRzuGCCzCulyyyyfail,",
"nclNNcuuBNZCZZhcvu0uzzNnvlZGZZZZZZZHZcluiw+3zjzCm669rrimxfbJJLAPLKCvcmnCmvZLDSGGuy&,vHZGCCCpygyfgaus",
"uuuuuInyZBZZZDZIZmuuulmZulfucllcZZZGCuuy-*7ni0lhitguckprq569qcCFGHZmznumuNUUGSmu;uvzzzunszz7;116ghkz",
"GmBczVBuZnNZDKHNLLUTWTLIQLfzcczzhuuuy787e8,adzvriupqbsssaait9gBczuNLCIICCuuu7,,&4vGKLIGmvvvbj826wria",
"uznn2nNuJHFZNBZBZZZZUWHKZZG^^~EQRRRTHKULKYiemmljiewtcszBsaiftgJFIULHSSmvu,@,5yuuuuuuuuvvvCnzcCClCmbM",
"SIIDunnrZDGZCBcjZHZZZZZZZZZuT^~QQ^~~WQ~~^Ye2auitbbkstryrrq9y9tMznZDCuuuuuuvmNBCBnzcnNcczxCs94yCHDCCC",
"ZnKHLuu5ZvvzvBzuZZZZZZmZZZZezZZRWQULGKRLFDe6gmAbFFFAcCSAMMnnzgz61mnnCNumvNmvcmNcmvvccnmcxzcnjyybmMmm",
"uzuuuyyur0BNujuuZZZZZZZJUZZZMMZZZZmvcvhquAxMVFPRHHPYUYFUYULFJFJvuGmmmNmvDCccNNmmvNCmnnmnkga77iscbMBC",
"5DDSBCvnnuRUkBHIKZvmvlMlzZZZJnZvmZmZZZZuYB9FFPZFLJPDYPAUJFFCZCFMcHCmvmmBucuuccucvuuuuvnnzglahmlCjjjl",
"umcjuu8t9ebFPJJJYJJJHAMxjMmMxJf9lANVCkiEK<4BKPMAJGJJGJJSHDHICZTu*77uuu0uisdsxlbMVbjhlxlkfistliygBAJJ",
"KGJGZhp&gMJAAVJAPYYYPPPPYYLRJRFJDbCZMtcEt=kLPFAFVBALPLDmZGZcmBuuuucZKKZKGLIGIYPLFKPHCMVZDvVAJDFMNVCZ",
"llZJM4ZSJFJJFFFAJPPJPPPPYYHYYRPJHIRGTFFMNscbZbkMBBAZnbVFGBmZmuZWZvRWWRUWIY!GFACGGDASHGSZDJJHHAHUJFDD",
"082345JJPFFJJJJJJYPJYPJJPYJPPJHBHRIKUKJLP;wEFVVACMCZNnNABZZZuNWv7yIZZKZKRGJCAAVDHHGDZCSFVHDJYLHJUPJH",
"mCBb<uKGAFJJJJPJFYYJPJFYPJFJFbZFCAGYPPPLwX8JCAZMllbBnzcMZuyuLZu2*7LLUULKHFUJLLKLPHFHPUPJKFKYFJYFUUYY",
"MxBA=iJDJJJPJJJJFJFAAZZFAAVBMMDJLHJZFBzfisy8xMxkddghuedxuuunZuuuuuZZKKZHZGIFSZHZBAHPYYIPJMBg638qruas",
"asft%sYLPFFPFJFFJAVVAAAADFJFAHDDxuw56ufLEVzkZZZZGCBCZCBNmZzNBnZZZZcLIRWTDSCCNzmgvgskMBku4>96yt8wiafg",
"st=O;<akxAJAmFFZFVVFFDFJPPYEDmjBHNAMu~!YGTGBMCcBBnBBNmNNNvmCZZNZZZuHLRZuacZHj;yjzjggjkjgg9FJLUPYPPPP",
"bg6u99VbkkVMxgs5aAVbxVMVVbi9<==jAVJy%BJQUWEnZnmNNMCCCbZCCCCnZZNNmBu400unKR^b,djNxlbMmnvje6DPLUJJHPPP",
"AJZAfqMBBmVMADb3kPMxg6;<63uggBVbbNkurxgfzzh2zNzNnMMNCnZCmCCZZZBZBNnNCuZ^LZbumLLGPJKPFGJFZzAbdkvCMDFC",
"iu95:=ikugbzggfq=<<3:#4vADPAAJFMMnVLFAMs55e2rZmNCCCMCnCnCZZKUIITTZNZLCZueZZZUJJKJJPPJKLKPPYZi6*%3<2e",
"AVMVAmzgzkbBbcmMp <k9%=kVDFBAMBFBjmnggfiue00:jzmnnNCZCZGZKZLIKGZIZzvHPLu1JGLFZZKDFJKJJJJJGZKPLvytsss",
"BMmmVVBZZbbBVCCAb<vAitti9qtpbbMMcclgcbjkfzuffvnZCbCCZCZKZKZUEUUIZv8uZUUmeZZZZIKJPKJFGJJJAPJKFJJLFi=%",
"MVVVVMMAMZVVMVMmBcVvgMM9cVt#<898ydwypyr4vCDDZjbzlujhuyyuznjjuuuyju25ZZTLuZKJKHGZSFAAHFDFJPJLPLDZAHb6",
"MMMVVmVBMCVCVFMbb39bZvs#JEz<6wqi%#+550uwzzBBmvLZFvDZCNCcZLZZZZZmmZzqquzuuGUGKFZZBASFLJFHDFPFDVVCFPJA",
"BVMVBbVbMAAPJJFLA;iMxvVgrggVBbku2<qNLEmPLUZSZWZTICIGCZZjCLHZZZLZZZLZZZk**HLUGIHGCGGGLJFPJDJAAAGJFDVM",
"BNBZZCZDZGITHIKUMsPvjACz$:lxzmmg22ZWWWWKZIRTIRWLIumUILLCHSBBndhcvMMMbcAc9tYPUPJJPJGPFJFJFDDDGJHJHDF3",
"vvmSZZZZGDDTUUGGigvMMMtgtbAmBcvb7uZKKT!UTWRUPUIKUurLIILHGZnNZCBNmklieqt6j<gTJJYDFLPHJJJJDHKJJJGDGY6 ",
"uuuuuNmmCNuuu4uuts<<q7sF0afcZMve&uIUITWTZTUIKUZZGGqGKZGLLGZKLKZnMkkfkxk:biwJPJYYPLLFPJJLUFDFHDDJPq&h",
"nZCSHLHSCZCNc8uHAx%%33s9$>3767q1&uKUTLIWZZZLLIL~ITumLCLLGSmNNnmnmAmmbvB=6x68ewqkjtivMMCFMJTYPPLJJaZL",
"SDGGSZNvNNCHUllIbx3MVAJxnSVcBVzBumVNZZIRIZZmcvfjDLrqrqjjNZBnnmBnMVbMBbM<gPEJBbzzkwiBgkxkk64zSCCPys~H",
"ZZBNBZDGDSCCGuuTFs=gAxjiscAMkgrsGZZNBCmuulNZvZzuuDuu272,yufBGZZZVMLPPBp4tgPRYPYPIE~T:%1wqfzgssfa=&hC",
"ZCBCSBBZSHGBCzuK5=<8gwsccdgcfzf9uuuBZZGmu*quuy58uuuuuu7;q88lZZGKJVAsq9iZMkkaittgxgis5udjVSSVNCSSmcfs",
"uuruucBSBBmuNm,u=5bcgvzzzmcDGKJFBmucnuvuu0mcmnj5vuu8urr78ye8rff8%==%qkAUUDMg9696fq3amFDHFVNCABMnZAVC",
"uuuyu,5uuucccjuuvNNBKZuzcxxmVnzxZZGGvuuKnuDuuunuSBGKSDHGca7qurq2rixbMZBBBxBZbZAuq634txBAZMMbgzbxkhlm",
"BGZSL2&unnNNNnnnBvnnuurubvjgkccvvuumuNZZGcvcvumSKGSSDLKBncNvcu7uzvVVMxitkiiffkxzis=9Vxkxhkgffgfpssgs",
"ZZnzu5eunnvluuujurr2;:7r461>3rytu7uuuuuCuuuZKCuCSZDLDvvCDSZmSBavbxxkkxzbbbswisttst93skigaaisar9tyyty",
"uucvBmDuuuuuuvmvczvuuuxukluuypyq7uuuuuuuuvmcZZBZGSmvZHScvnNGNqpGAAFVMVMVAJVhgsttsmMkt9i9gzkw49iiggkl",
"nnvnIIKSCDGSZSDGKSBCKLDGZZVZFHGGUUUHCnNumuuuuuuuzzlnCBmBSZCDvuuysggteiipp6<tmAMcBFVki9sirtkmxbHPAZDD",
"NnvNBmNllmBCNmmBcznuNZNSBBBZFCMNHGDDDDGHHGTKBSGn7unvumNmzqaur87ykmFFFPFAHVBMxzzzMgcsjbs>=:iVMxmMBVBC",
"zunBzNISBvlcmnluuuBNnmzuzzcnMnjzGBBZmuuGGUTCNKTIr,5uzvzuulmczSSKFFFFDJFJDFAVZFFFHVgtffx%=ikffzvbNMmm",
"nmzuuqquuuulluzNvuNGNnuiiittiuucBuvmBZBCBuZHUKSG,2uGGSGHZKGDDCZZVbmVAAVAFABAPFVFAAmtkr60NTUFb6<f949g",
"IIKZZNuy>8rq02,227ryaujzljhaccNNBBmnllzlaaeuuBNu@7NmBZSnDZCNmmBBMmNZAAAAZAHKJDAACmbskgrfAYIJWFjFSvi5",
"uuyeryr8272,>;,577527e0raafppqujaruzzdrruvmBCuuu20cBDZZDBNNNmNBNVBVAAZVBVZAFFACZBmbakhetMVAAJZbFFGKP",
"nvuvzczvBCNmNCZDSSSCBvr8adlzjrannjzZGBmmCKIUKZKDHvzuuuZIGHZZBnclbbmVZVBMAAAFFAACCBctxANMCkgpy9raryaf",
"ZCmNnccnzvNCSSZZBNCSDDzzvlvZBvNDCNCNBBGGSHHDCCSSGSGCDcuqruuuzvccbbBDJJGGFFHHFAAFCbi1sBCCDnncpryygzMF"
};
